<svg xmlns="http://www.w3.org/2000/svg" width="541.043" height="608.368" viewBox="0 0 541.043 608.368">
  <g id="Image" transform="translate(-0.15 -0.15)">
    <path id="Path" d="M453.209,353.558a182.85,182.85,0,0,1-58.9,105,223.2,223.2,0,0,1-34.5,25c-43.25,26.15-96.85,42-152.65,55l-9.55,2.15a96,96,0,0,1-25.3,2.3c-88.75-3.7-149.2-135.25-168-273.7-16.4-123.25,11.05-262.85,133.95-269.15,46.15-2.3,100,20.7,150,57.7,3.6,2.65,7.2,5.4,10.75,8.2h0l2.2,1.75C394.559,142.208,470.809,262.858,453.209,353.558Z" transform="translate(85.441 41.742)" fill="#fde6d6"/>
    <path id="Path-2" data-name="Path" d="M54.525,34.987c6.95,14.05,9.5,31.85-4.45,37.55-15.6,6.4-40.5-3.9-47.7-27.35-4.65-15-3.05-35.9,10-43.95C23.025-5.663,46.225,17.787,54.525,34.987Z" transform="translate(48.525 476.363)" fill="#f5f9fd"/>
    <path id="Path-3" data-name="Path" d="M8.184,22.83c-6.25-5.45-11.25-13.55-5.95-19s19.6-5.9,28,4.05c5.35,6.35,9.05,16.75,5,23.1C31.634,36.38,15.984,29.48,8.184,22.83Z" transform="translate(476.566 173.42)" fill="#ffad69"/>
    <path id="Shape" d="M184.7,494.975a84.485,84.485,0,0,1-10-1.2.633.633,0,0,1,.2-1.25,83.884,83.884,0,0,0,10,1.2.6.6,0,0,1,.443.194.6.6,0,0,1,.157.457.649.649,0,0,1-.8.6Zm10,0a.6.6,0,0,1-.6-.6.55.55,0,0,1,.55-.651,81.606,81.606,0,0,0,10-1.3.65.65,0,0,1,.751.5.6.6,0,0,1-.5.7,84.064,84.064,0,0,1-10,1.35Zm-39.05-6.95a.65.65,0,0,1-.35-.8.7.7,0,0,1,.85-.35,91.039,91.039,0,0,0,9.3,3.4.651.651,0,0,1,.45.8.7.7,0,0,1-.8.35v.049A93.953,93.953,0,0,1,155.652,488.025Zm58.1,2.7a.651.651,0,0,1,.4-.8c1.45-.45,2.95-1,4.45-1.55l5-1.85a.6.6,0,0,1,.8.35.55.55,0,0,1-.35.8l-5,1.9c-1.5.55-3.05,1.1-4.549,1.55l-.15.05h-.019A.6.6,0,0,1,213.752,490.725Zm18.751-7a.55.55,0,0,1,.35-.8l9.3-3.7a.618.618,0,1,1,.45,1.15l-9.3,3.7-.25.05A.6.6,0,0,1,232.5,483.725Zm-85.8-.1v.05h-.3c-2.9-1.551-5.8-3.3-8.65-5a.65.65,0,0,1,0-.85.6.6,0,0,1,.85,0,88.445,88.445,0,0,0,8.55,5,.46.46,0,1,1-.45.8Zm104.45-7.35a.649.649,0,0,1,.3-.85c3.1-1.25,6.2-2.55,9.25-3.9a.7.7,0,0,1,.8.35.6.6,0,0,1-.3.8c-3.1,1.35-6.151,2.65-9.25,3.9l-.25.049h-.037A.549.549,0,0,1,251.152,476.275Zm-121.5-3.45c-2.6-2-5-4.1-7.8-6.35a.621.621,0,0,1,.8-.95c2.55,2.2,5,4.35,7.75,6.3a.54.54,0,0,1-.5.95l.1.049a.555.555,0,0,1-.35,0Zm139.8-4.5a.6.6,0,0,1,.3-.8c3.049-1.4,6.1-2.75,9.1-4.2a.65.65,0,1,1,.5,1.149l-9.1,4.2-.25.05A.6.6,0,0,1,269.452,468.325Zm18.15-8.45a.6.6,0,0,1,.3-.85l8.9-4.5a.65.65,0,1,1,.6,1.1c-3,1.55-5.95,3.05-9,4.5l-.25.1h0A.6.6,0,0,1,287.6,459.875Zm-173.25-.149q-3.5-3.451-7.05-7.2a.549.549,0,0,1,0-.851.65.65,0,0,1,.9,0c2.35,2.5,4.7,5,7,7.151a.548.548,0,0,1,0,.85.5.5,0,0,1-.45,0v.05a.556.556,0,0,1-.4,0Zm191.05-9.05a.649.649,0,0,1,.249-.85c2.95-1.6,5.9-3.251,8.7-5a.651.651,0,0,1,.85,0,.6.6,0,0,1,0,.85l-8.751,5-.5.35A.7.7,0,0,1,305.4,450.675Zm-204.45-5.55a.7.7,0,0,1-.5,0c-2.149-2.45-4.25-5-6.35-7.75a.6.6,0,1,1,.95-.75c2.1,2.65,4.251,5,6.35,7.7a.65.65,0,0,1,0,.9Zm221.65-4.45a.6.6,0,0,1,0-.85c2.9-1.8,5.75-3.6,8.45-5.4a.6.6,0,1,1,.85.85c-2.7,1.8-5.55,3.6-8.45,5.4l-.35.3h-.012A.549.549,0,0,1,322.6,440.675Zm16.75-10.75a.6.6,0,0,1,0-.85c2.75-2,5.449-3.95,8.05-5.95a.6.6,0,1,1,.851.85c-2.6,2-5.3,4-8.1,5.95a.492.492,0,0,1-.15-.049l-.15.049a.6.6,0,0,1-.5,0ZM88,429.125c-1.95-2.6-3.9-5.35-5.8-8.15a.7.7,0,0,1,0-.9.65.65,0,0,1,.9,0c1.9,2.75,3.849,5.5,5.75,8.15a.6.6,0,0,1,0,.85.656.656,0,0,1-.2.3l-.149.05A.6.6,0,0,1,88,429.125Zm267.251-11.6a.6.6,0,0,1,0-.85c2.55-2.15,5-4.35,7.549-6.549a.6.6,0,0,1,.851,0,.649.649,0,0,1,0,.9l-7.6,6.55a.64.64,0,0,1-.149.15l-.15.049A.7.7,0,0,1,355.253,417.525Zm-278.6-5.05c-1.75-2.75-3.55-5.65-5.3-8.5a.65.65,0,0,1,0-.85.6.6,0,0,1,.85,0c1.7,2.849,3.5,5.7,5.25,8.5a.651.651,0,0,1,0,.85l-.25.3A.7.7,0,0,1,76.652,412.475Zm293.95-8.2a.446.446,0,0,1-.4,0,.548.548,0,0,1,0-.85c2.35-2.4,4.7-5,6.9-7.2a.6.6,0,0,1,.85,0,.65.65,0,0,1,0,.9c-2.2,2.4-4.55,5-6.95,7.25a.6.6,0,0,1-.4-.1Zm-304.25-8.9c-1.6-2.85-3.251-5.8-5-8.8a.65.65,0,0,1,1.1-.6c1.6,3,3.25,5.95,5,8.75a.651.651,0,0,1,0,.85l-.55.1h0A.649.649,0,0,1,66.353,395.375Zm317.849-5.9h-.5a.65.65,0,0,1,0-.9c2.1-2.6,4.15-5,6.1-7.9a.6.6,0,1,1,.851.85c-1.95,2.65-4,5.35-6.15,7.95a.55.55,0,0,1-.3,0Zm-327.35-11.8c-1.55-3-3.05-6.05-4.45-9a.726.726,0,0,1,1.1-.8l4.45,9a.649.649,0,0,1-.25.85l-.3.3h0A.6.6,0,0,1,56.852,377.675Zm339.1-4.3-.1-.049h-.3a.6.6,0,0,1,0-.85c1.8-2.8,3.5-5.65,5-8.55a.65.65,0,1,1,1.1.6c-1.65,2.9-3.4,5.8-5,8.6a.7.7,0,0,1-.7.25Zm-347.8-13.75c-1.4-3.05-2.75-6.1-4.1-9.2a.618.618,0,1,1,1.15-.45c1.3,3.05,2.7,6.1,4.05,9.1a.651.651,0,0,1-.3.851l-.25.049h0A.6.6,0,0,1,48.152,359.625Zm357.45-3.749a.65.65,0,0,1-.3-.85c1.45-2.95,2.8-6,4.1-9.1a.6.6,0,0,1,.8-.3.65.65,0,0,1,.35.8c-1.3,3.1-2.65,6.2-4.1,9.149a.65.65,0,0,1-.85.3Zm-365.55-14.65q-1.949-4.649-3.749-9.3a.6.6,0,0,1,.35-.85.649.649,0,0,1,.8.4c1.2,3.1,2.451,6.2,3.75,9.249a.7.7,0,0,1-.35.85h-.287A.552.552,0,0,1,40.052,341.225Zm373.15-3.85a.65.65,0,0,1-.4-.8c1.1-3.15,2.05-6.349,2.95-9.5a.618.618,0,1,1,1.2.3c-.9,3.2-1.9,6.45-2.95,9.6a.649.649,0,0,1-.6.4Zm-380-14.449a.65.65,0,0,1-.6-.4c-1.15-3.1-2.3-6.25-3.4-9.4a.618.618,0,1,1,1.15-.45c1.149,3.15,2.25,6.3,3.45,9.45a.65.65,0,0,1-.4.8Zm385.25-5a.65.65,0,0,1-.5-.75c.7-3.3,1.35-6.6,1.85-10a.65.65,0,0,1,.75-.5.6.6,0,0,1,.5.7c-.5,3.25-1.15,6.55-1.85,10a.7.7,0,0,1-.45,1ZM26.2,303.625c-1.049-3.15-2.1-6.3-3.1-9.5a.65.65,0,0,1,1.2-.4c1,3.2,2.05,6.35,3.1,9.5a.6.6,0,0,1-.4.8l-.2.049A.7.7,0,0,1,26.2,303.625Zm395.171-5.395a.55.55,0,0,1-.121-.455c.35-3.25.65-6.6.85-10a.6.6,0,0,1,.651-.6.7.7,0,0,1,.6.651,92.936,92.936,0,0,1-.85,10,.65.65,0,0,1-.5.55l-.2.049h-.009A.551.551,0,0,1,421.373,298.23ZM20.6,284.975a.649.649,0,0,1-.6-.4c-.95-3.2-1.9-6.449-2.8-9.65a.626.626,0,0,1,1.2-.35c.9,3.25,1.85,6.45,2.8,9.6a.65.65,0,0,1-.4.8Zm401.85-7.2c0-3.3-.25-6.65-.5-10a.6.6,0,0,1,.55-.7.652.652,0,0,1,.7.6c0,3.3.45,6.7.5,10a.65.65,0,0,1-.6.65l-.049.05A.6.6,0,0,1,422.452,277.775ZM14.7,265.275v-.5c-.851-3.25-1.7-6.5-2.5-10a.643.643,0,0,1,1.25-.3c.8,3.25,1.6,6.5,2.45,9.7v.5a.65.65,0,0,1-.45.8l-.15.25h-.019A.6.6,0,0,1,14.7,265.275Zm406-7.4c-.5-3.2-1.1-6.5-1.8-10a.613.613,0,1,1,1.2-.25c.75,3.3,1.35,6.6,1.85,10a.6.6,0,0,1-.5.7l-.1.049h-.019A.649.649,0,0,1,420.7,257.875ZM10,245.275c-.75-3.3-1.45-6.6-2.049-10a.613.613,0,1,1,1.2-.25c.65,3.2,1.35,6.5,2.05,10a.6.6,0,0,1-.45.75h-.16A.6.6,0,0,1,10,245.275Zm406.7-6.8c-.9-3.1-1.9-6.35-2.949-9.5a.633.633,0,1,1,1.2-.4c1.05,3.2,2.05,6.45,2.95,9.6a.6.6,0,0,1-.45.75l-.15.05h-.007A.6.6,0,0,1,416.7,238.475ZM6.5,226.125a.6.6,0,0,1-.6-.5c-.6-3.3-1.15-6.649-1.65-10a.633.633,0,1,1,1.249-.2c.5,3.3,1.05,6.6,1.6,10a.65.65,0,0,1-.5.751Zm403.5-6.55c-1.2-3.05-2.45-6.15-3.8-9.25a.6.6,0,0,1,.3-.8.649.649,0,0,1,.85.3c1.35,3.1,2.65,6.2,3.8,9.3a.6.6,0,0,1-.35.8l-.2.05A.651.651,0,0,1,410,219.575Zm-407.15-13.8c-.4-3.3-.8-6.65-1.15-10a.6.6,0,0,1,.55-.7.65.65,0,0,1,.7.55c.35,3.3.75,6.65,1.15,10a.6.6,0,0,1-.55.7H3.495A.65.65,0,0,1,2.852,205.775Zm399.25-4.5c-1.4-2.9-2.95-5.9-4.549-8.9a.542.542,0,1,1,.85-.6c1.6,3,3.15,6,4.6,8.951a.649.649,0,0,1-.3.85v.05A.75.75,0,0,1,402.1,201.275ZM1.452,186.425l-.05-.05a.6.6,0,0,1-.6-.55c0-3.4-.5-6.8-.65-10a.65.65,0,0,1,.6-.65.6.6,0,0,1,.65.6c0,3.25.4,6.6.65,10a.6.6,0,0,1-.6.65Zm391.251-2.75c-1.651-2.849-3.4-5.7-5-8.55a.7.7,0,0,1,0-.9.651.651,0,0,1,.851,0c1.8,2.9,3.55,5.75,5,8.6a.6.6,0,0,1,0,.85l-.35.3h-.009A.549.549,0,0,1,392.7,183.675Zm-10.651-16.7c-1.8-2.7-3.7-5.45-5.649-8.25a.6.6,0,0,1,0-.85.65.65,0,0,1,.9,0c2,2.749,3.9,5.549,5.7,8.249a.651.651,0,0,1,0,.85.5.5,0,0,1-.4,0,.8.8,0,0,1-.55,0Zm-381.4-.6H.6a.6.6,0,0,1-.6-.6V155.725a.6.6,0,0,1,.6-.6.6.6,0,0,1,.65.6v10a.6.6,0,0,1-.6.65Zm370-15.7c-2.05-2.7-4.1-5.351-6.151-7.9a.619.619,0,1,1,.9-.85c2,2.551,4.1,5,6.151,7.9a.65.65,0,0,1,0,.9l-.4-.049a.6.6,0,0,1-.5,0ZM.6,146.325a.6.6,0,0,1-.6-.65c0-3.35.35-6.7.6-10a.6.6,0,0,1,.65-.6.7.7,0,0,1,.6.7c0,3.25-.45,6.65-.6,10a.649.649,0,0,1-.641.55Zm357.35-11.3-6.55-7.6a.619.619,0,1,1,.9-.85c2.15,2.4,4.35,5,6.55,7.55a.65.65,0,0,1,0,.9.549.549,0,0,1-.4,0,.649.649,0,0,1-.5,0ZM2.2,126.375a.65.65,0,0,1-.55-.7c.4-3.35.85-6.7,1.4-10a.6.6,0,0,1,.7-.5.551.551,0,0,1,.5.7c-.5,3.2-.95,6.55-1.35,10a.651.651,0,0,1-.7.5Zm342.949-6.35a.552.552,0,0,1-.45,0c-2.25-2.45-4.6-5-6.9-7.249a.65.65,0,0,1,0-.9.7.7,0,0,1,.9,0c2.3,2.4,4.649,5,6.9,7.3a.65.65,0,0,1,0,.9.789.789,0,0,1-.139.012A.808.808,0,0,1,345.152,120.025ZM5.6,106.625a.6.6,0,0,1-.5-.75c.65-3.25,1.45-6.55,2.25-10a.6.6,0,0,1,.8-.45.65.65,0,0,1,.45.75c-.851,3.2-1.6,6.5-2.3,9.75a.649.649,0,0,1-.647.7Zm325.671-.9a.5.5,0,0,1-.271-.051c-2.45-2.35-5-4.7-7.25-6.951a.6.6,0,0,1,0-.85.65.65,0,0,1,.9,0c2.4,2.25,5,4.6,7.25,6.95a.65.65,0,0,1,0,.9.6.6,0,0,1-.629,0Zm-14.721-13.77a.649.649,0,0,1-.2-.032c-2.45-2.25-5-4.451-7.55-6.6a.7.7,0,0,1,0-.9.65.65,0,0,1,.9,0l7.55,6.6a.7.7,0,0,1,0,.9.651.651,0,0,1-.7.032ZM10.6,87.225a.7.7,0,0,1-.4-.8c1.049-3.25,2.15-6.45,3.35-9.5a.7.7,0,0,1,.8-.35.6.6,0,0,1,.35.8c-1.15,3-2.25,6.2-3.3,9.4a.65.65,0,0,1-.8.45Zm290.3-8.35c-2.6-2.1-5-4.25-7.8-6.25a.65.65,0,0,1,.8-1c2.55,2.05,5,4.15,7.8,6.3a.6.6,0,0,1,0,.85.7.7,0,0,1-.4.1.547.547,0,0,1-.4,0ZM17.652,68.375a.6.6,0,0,1-.3-.85c1.4-3.05,2.95-6.05,4.55-8.95a.65.65,0,1,1,1.1.6c-1.6,2.85-3.1,5.85-4.55,8.9a.6.6,0,0,1-.8.3ZM285.6,66.525h-.35c-2.651-2-5.4-4-8.1-5.9a.65.65,0,0,1,.7-1.05c2.75,1.95,5.449,3.95,8.15,5.951a.575.575,0,0,1-.4,1Zm-16.7-11.65-8.3-5.6a.618.618,0,0,1,.65-1.05q4.25,2.7,8.4,5.55a.648.648,0,0,1,0,.85.5.5,0,0,1-.4.25.4.4,0,0,1-.35,0ZM27.452,51.125H27.1a.6.6,0,0,1,0-.85c1.9-2.85,3.9-5.55,5.951-8.15a.619.619,0,1,1,.85.9,84.8,84.8,0,0,0-5.85,8,.551.551,0,0,1-.6.1Zm224.951-7.1h.049Zm-.3,0c-2.8-1.751-5.7-3.451-8.6-5a.618.618,0,1,1,.65-1.05c2.9,1.651,5.8,3.4,8.6,5a.6.6,0,0,1,0,.85.55.55,0,0,1-.35.2ZM39.923,35.534a.486.486,0,0,1-.371-.859c2.35-2.45,5-5,7.3-6.95a.636.636,0,0,1,.9.9,92.963,92.963,0,0,0-7.2,6.85.654.654,0,0,1-.368.114A.644.644,0,0,1,39.923,35.534Zm195.029-1.509h-.3q-4.4-2.4-8.851-4.65a.65.65,0,0,1-.2-1,.6.6,0,0,1,.85-.25c2.9,1.45,5.9,3.05,8.851,4.65a.6.6,0,0,1,0,.85.554.554,0,0,1-.3.4Zm-17.85-9.05h-.3c-2.95-1.4-6.05-2.8-9.1-4.1a.649.649,0,0,1-.3-.85.6.6,0,0,1,.8-.3c3.1,1.35,6.15,2.7,9.149,4.15a.568.568,0,0,1-.2,1.1Zm-162.651-2.8a.6.6,0,0,1,0-.851c2.75-1.949,5.55-3.8,8.45-5.45a.65.65,0,0,1,.65,1.1c-2.849,1.65-5.7,3.45-8.349,5.351a.617.617,0,0,1-.2.1h-.087A.551.551,0,0,1,54.452,22.175Zm144.25-5.15c-3.1-1.2-6.25-2.4-9.35-3.5a.65.65,0,0,1-.4-.8.7.7,0,0,1,.8-.35c3.15,1.1,6.3,2.3,9.4,3.5a.6.6,0,1,1,0,1.2Zm-127-4.95a.651.651,0,0,1,.3-.851c3-1.35,6.1-2.65,9.3-3.8a.6.6,0,0,1,.8.35.65.65,0,0,1-.35.8c-3.15,1.15-6.251,2.45-9.2,3.8l-.3.05A.7.7,0,0,1,71.7,12.075Zm108.1-1.7c-3.2-1-6.4-1.9-9.6-2.75a.7.7,0,0,1-.45-.75.651.651,0,0,1,.85-.5c3.15.851,6.4,1.751,9.65,2.8a.6.6,0,1,1,0,1.2Zm-89.3-5.2a.65.65,0,0,1,.45-.8c3.15-.85,6.45-1.6,10-2.25a.6.6,0,0,1,.75.45.649.649,0,0,1-.5.75c-3.3.651-6.55,1.4-9.7,2.25l-.4.05A.7.7,0,0,1,90.5,5.175Zm70.1.05c-3.3-.7-6.6-1.35-10-1.85a.65.65,0,0,1-.5-.75.6.6,0,0,1,.7-.5c3.2.55,6.55,1.15,10,1.9a.652.652,0,0,1,.5.751.6.6,0,0,1-.7.45ZM110.181,1.883A.548.548,0,0,1,110,1.475a.549.549,0,0,1,.55-.65c3.25-.35,6.6-.6,10-.7a.649.649,0,0,1,.6.6.6.6,0,0,1-.6.65,94.99,94.99,0,0,0-10,.65h.049l-.05,0A.551.551,0,0,1,110.181,1.883ZM130.6,1.275a.65.65,0,1,1,0-1.25,96.1,96.1,0,0,1,10,.75.6.6,0,0,1,.55.7.651.651,0,0,1-.55.55C137.3,1.675,133.952,1.425,130.6,1.275Z" transform="translate(49.148 113.525)" fill="#d8d5db"/>
    <path id="Path-4" data-name="Path" d="M345.08,297.554v1.65c-1.25,13.95-13.25,43.7-25,70,.4,9.5.7,18,.75,25v3.7h-1.45c.35,6.2.8,16.95,1.15,29.3-43.25,26.15-96.85,42-152.65,55l-9.55,2.15a96,96,0,0,1-25.3,2.3,20.95,20.95,0,0,1-.55-6.4,678.5,678.5,0,0,1,8.8-84.1l-3.1-.45c11.35-38.3,17.05-93.55,20-141.5h0c.35-5.65.65-11.15.9-16.6-7.25,7.4-12.25,12-12.25,12l-15.35-25.25c-18.95,13.7-36.85,25.8-45.6,31.4-7.25,6.8-19.6,7.8-29.3-5-15.7-20.55-37.85-106.8-40.45-121.45a3.85,3.85,0,0,1-1.05-.6c-3.6-5-16.2-32.25-15-37.55s7.1-16.75,13.95-18.3c-.8-2.45-1.7-5-3-8.55-2.9-7.9-6.35-15.9-1.15-15s17.1,30,19.15,35c.3-2.35.6-4.25.6-4.25,1.6-4.7,10-7.2,8.75,0-1.45,10,2.05,15,1.9,23.25v1.65a6.75,6.75,0,0,1,0,.9,2.65,2.65,0,0,1,0,.65v.35a60.85,60.85,0,0,1-6.4,17.55h0c5.45,17.8,30.45,64.35,45,90,8.9-7.4,20-16.2,31.5-25l-1-1.65s59.3-55.45,90-59.65c.45-2.15.75-4.5,1.05-6.95s.5-6.6.6-10c-22.55-.25-24.65-16.85-22.4-37.95l-3.55-.9,5.25-13.6v-1a3.95,3.95,0,0,1-.95-2.4c0-1.65.45-3.05,1.35-3.1a.55.55,0,0,1,.4,0,29.842,29.842,0,0,1,.55-3.6c.4-2.65.9-5,1.4-7.45a10.5,10.5,0,0,0-4.05,0l-.4-2.45a14.25,14.25,0,0,1,5,0,67.3,67.3,0,0,1,7.95-19c-7.2-.5-10.6-2.85-5.6-8.65,7.75-9,44.45-13.5,62.95-9.7,6.5,1.35,10.75,3.7,10.8,7.2v1h0a10.95,10.95,0,0,0,4.7-3.8l2.1,1.4a14.1,14.1,0,0,1-4.6,4.15l-.75.4c19.8,12.9-8.2,82-8.3,82-.55,11.85-.9,23.55-.85,31.8,17.8,2.05,29.05,7.25,36.5,15.4,20,16.05,50.7,81.9,50.7,81.9l-12.55,3.3c8.95,28.7,16.55,57.5,18.75,67.15A17.049,17.049,0,0,1,345.08,297.554Z" transform="translate(124.67 98.196)" fill="#d1cdd3"/>
    <rect id="Rectangle" width="334.65" height="261.25" rx="33.6" transform="translate(377.05 284.9) rotate(180)" fill="#4d8dff" opacity="0.3"/>
    <path id="Shape-2" data-name="Shape" d="M40,308.4a40,40,0,0,1-40-40V40A40,40,0,0,1,40,0H354.6a40,40,0,0,1,40,40V268.25a40,40,0,0,1-40,40.15Z" transform="translate(0.15 0.15)" fill="#4d8dff" opacity="0.3"/>
    <g id="Group" transform="translate(70 55)" opacity="0.3">
      <rect id="Rectangle-2" data-name="Rectangle" width="55.9" height="43.65" rx="5.6" transform="translate(56.05 46.05) rotate(180)" fill="#4d8dff"/>
      <rect id="Rectangle-3" data-name="Rectangle" width="55.9" height="43.65" rx="5.6" transform="translate(130.45 46.05) rotate(180)" fill="#4d8dff"/>
      <rect id="Rectangle-4" data-name="Rectangle" width="55.9" height="43.65" rx="5.6" transform="translate(204.9 46.05) rotate(180)" fill="#4d8dff"/>
      <rect id="Rectangle-5" data-name="Rectangle" width="55.9" height="43.65" rx="5.6" transform="translate(279.35 46.05) rotate(180)" fill="#4d8dff"/>
    </g>
    <g id="Group-2" data-name="Group" transform="translate(70 130)" opacity="0.3">
      <rect id="Rectangle-6" data-name="Rectangle" width="55.9" height="43.65" rx="5.6" transform="translate(56.05 46.1) rotate(180)" fill="#4d8dff"/>
      <rect id="Rectangle-7" data-name="Rectangle" width="55.9" height="43.65" rx="5.6" transform="translate(130.45 46.1) rotate(180)" fill="#4d8dff"/>
      <rect id="Rectangle-8" data-name="Rectangle" width="55.9" height="43.65" rx="5.6" transform="translate(204.9 46.1) rotate(180)" fill="#4d8dff"/>
      <rect id="Rectangle-9" data-name="Rectangle" width="55.9" height="43.65" rx="5.6" transform="translate(279.35 46.1) rotate(180)" fill="#4d8dff"/>
    </g>
    <g id="Group-3" data-name="Group" transform="translate(70 205)" opacity="0.3">
      <rect id="Rectangle-10" data-name="Rectangle" width="55.9" height="43.65" rx="5.6" transform="translate(56.05 46.1) rotate(180)" fill="#4d8dff"/>
      <rect id="Rectangle-11" data-name="Rectangle" width="55.9" height="43.65" rx="5.6" transform="translate(130.45 46.1) rotate(180)" fill="#4d8dff"/>
      <rect id="Rectangle-12" data-name="Rectangle" width="55.9" height="43.65" rx="5.6" transform="translate(204.9 46.1) rotate(180)" fill="#4d8dff"/>
      <rect id="Rectangle-13" data-name="Rectangle" width="55.9" height="43.65" rx="5.6" transform="translate(279.35 46.1) rotate(180)" fill="#4d8dff"/>
    </g>
    <rect id="Rectangle-14" data-name="Rectangle" width="55.9" height="43.65" rx="5.6" transform="translate(282 93.95) rotate(180)" fill="#4d8dff"/>
    <rect id="Rectangle-15" data-name="Rectangle" width="55.9" height="43.65" rx="5.6" transform="translate(282 244) rotate(180)" fill="#ff4e4a"/>
    <rect id="Rectangle-16" data-name="Rectangle" width="55.9" height="43.65" rx="5.6" transform="translate(133.1 169) rotate(180)" fill="#ffc84d"/>
    <path id="Path-5" data-name="Path" d="M60.613,0c-1.7,10.9-5,70-3.65,83.5s-65,17.6-56.15,2.55,2.55-65,2.55-65Z" transform="translate(355.487 148.75)" fill="#ffad69"/>
    <path id="Path-6" data-name="Path" d="M52.65,0,0,19.25A273.5,273.5,0,0,1,1.4,68.9c21.7-8.95,16.9-27.15,16.9-36.95C18.3,23.05,52.7,1.7,52.65,0Z" transform="translate(358.85 150.45)" fill="#d88344"/>
    <path id="Path-7" data-name="Path" d="M8.2,0,0,17.5l10,4.05L8.2,0Z" transform="translate(333.9 152.7)" fill="#d88344"/>
    <path id="Path-8" data-name="Path" d="M4.222,47.514c-5,33.65-13.2,67.2,27.6,61.65s47.1-57.75,47-67.65C78.172-11.086,13.822-18.586,4.222,47.514Z" transform="translate(337.728 99.386)" fill="#ffad69"/>
    <path id="Path-9" data-name="Path" d="M77.894,11.776a15.55,15.55,0,0,0,5.35-4.55l-2.1-1.4a11.35,11.35,0,0,1-5,3.8,6.8,6.8,0,0,0,0-1.05c0-13.6-63.3-9.7-73.75,2.45-6.2,7.2.4,9.1,11.1,8.75a5,5,0,0,0-1.7,2.4c-7.05,34.55,26.25,68.55,30,71.45h27.2S97.494,24.476,77.894,11.776Z" transform="translate(343.606 98.324)" fill="#232323"/>
    <path id="Path-10" data-name="Path" d="M75.3,118.8C71.7,102.75,52.95,33.3,38.05,0L0,8.1S24.55,90.2,37.6,120.85c-3.05,16.5-18.45,93.25-27.95,114.7-4.2,10,11.7,13.85,15.55,9.05s47.55-92.6,50-120v-1.65a13.35,13.35,0,0,0,.1-4.15Z" transform="translate(430.2 272.7)" fill="#ffad69"/>
    <path id="Path-11" data-name="Path" d="M27.875,7.57c20,15.65,50.95,82.2,50.95,82.2l-65.5,17S-24.775-33.63,27.875,7.57Z" transform="translate(420.475 231.28)" fill="#e5aa33"/>
    <path id="Path-12" data-name="Path" d="M187.187,10.7a223.2,223.2,0,0,1-34.5,25c-43.25,26.15-96.85,42-152.65,55a12.7,12.7,0,0,1,0-1.95c1.8-30.95,5-66.3,10-88.75l143.05,2.85,33.8.7C186.887,5.25,187.187,7.65,187.187,10.7Z" transform="translate(292.563 489.65)" fill="#232323"/>
    <path id="Path-13" data-name="Path" d="M102.1.123c39.25,1.3,52.55,14.55,59.3,37.5,7.7,26,21.25,183.25,21.25,235.75,0,0-117.55,8.35-182.65-2.35,20.4-68.95,22.6-192.9,23.05-230C23.35,13.473,52.3-1.527,102.1.123Z" transform="translate(298.35 222.777)" fill="#ffc84d"/>
    <path id="Shape-3" data-name="Shape" d="M11.3,20.2.75,6a3.75,3.75,0,0,1,3-6H20.1a3.8,3.8,0,0,1,3.5,5L17.9,19.2a3.751,3.751,0,0,1-3,2.3l-.6.2h-.025A3.7,3.7,0,0,1,11.3,20.2Z" transform="translate(394 229.7)" fill="#fff"/>
    <path id="Path-14" data-name="Path" d="M4.081,2.855c0,1.65-.45,3.05-1.35,3.1s-1.7-1.2-1.8-2.85.45-3,1.35-3.1S3.981,1.205,4.081,2.855Z" transform="translate(338.719 150.395)" fill="none"/>
    <path id="Path-15" data-name="Path" d="M10.05,6.686a9.3,9.3,0,0,0-9.5-4.05L0,.236a11.8,11.8,0,0,1,12.15,5Z" transform="translate(338.75 136.664)" fill="none"/>
    <path id="Path-16" data-name="Path" d="M2.95,4.232c-.3,18.15-1,47.1-2.95,79.45,16.65-20,33-43.65,33.95-61.4C35.3-2.118,21.45-3.618,2.95,4.232Z" transform="translate(318.3 268.718)" fill="#e5aa33"/>
    <path id="Path-17" data-name="Path" d="M183.451,134.188l-20-33.25s-55,39.65-84.55,64.2c-14.6-25.7-39.55-72.25-45-90h0a60,60,0,0,0,6.35-17.5.7.7,0,0,0,0-.35v-.65a6.2,6.2,0,0,0,0-.9v-1.7c0-8.05-3.35-13-1.9-23.2,1-7.15-7.15-4.7-8.75,0l-.65,4.2c-2.05-5-14.4-34.35-19.1-35s-1.75,7.25,1.15,15c1.25,3.45,2.2,6.15,3,8.55-6.9,1.6-13,13.4-13.95,18.35s11.55,32.55,15,37.55a3.85,3.85,0,0,0,.95.85c2.55,14.7,25,100.9,40.4,121.5,9.7,12.75,22.1,11.75,29.35,5C103.551,195.488,158.251,157.888,183.451,134.188Z" transform="translate(159.949 147.212)" fill="#ffad69"/>
    <path id="Path-18" data-name="Path" d="M107.9,22.3c-2,36.7-70,99.65-70,99.65L0,59.946S111.6-44.454,107.9,22.3Z" transform="translate(269.25 225.854)" fill="#ffc84d"/>
    <path id="Path-19" data-name="Path" d="M1.437,11.832c-1.5,8.8-3.7,17.55,4.55,16.9s10.35-14.35,10.5-16.95C17.187-2.218,4.387-5.568,1.437,11.832Z" transform="translate(354.713 145.468)" fill="#ffad69"/>
  </g>
</svg>
