<svg id="Image" xmlns="http://www.w3.org/2000/svg" xmlns:xlink="http://www.w3.org/1999/xlink" width="519.785" height="573.31" viewBox="0 0 519.785 573.31">
  <defs>
    <clipPath id="clip-path">
      <path id="Clip_2" data-name="Clip 2" d="M0,0H519.784V511.009H0Z" transform="translate(0.001 0.991)" fill="none"/>
    </clipPath>
    <clipPath id="clip-path-2">
      <path id="Clip_9" data-name="Clip 9" d="M0,0H363.688V491.181H0Z" transform="translate(1.75 3.819)" fill="none"/>
    </clipPath>
    <clipPath id="clip-path-3">
      <path id="Clip_52" data-name="Clip 52" d="M0,573.31H519.785V0H0Z" fill="none"/>
    </clipPath>
  </defs>
  <g id="Group_3" data-name="Group 3" transform="translate(0 61.31)">
    <path id="Clip_2-2" data-name="Clip 2" d="M0,0H519.784V511.009H0Z" transform="translate(0.001 0.991)" fill="none"/>
    <g id="Group_3-2" data-name="Group 3" clip-path="url(#clip-path)">
      <path id="Fill_1" data-name="Fill 1" d="M456.45,487.879c-13.45,8.1-29.1,13.95-46.35,17.75a230.213,230.213,0,0,1-36.35,4.85c-46.7,2.85-100.4-5.9-152.15-23.4-11.6-3.9-23.1-8.25-34.4-13.05-84.15-35.4-157.3-93.2-177.8-160.2-37.45-122.3,42.95-210.25,136.05-290.95,37.75-32.75,86.95-28.05,137.85-.4a315.293,315.293,0,0,1,35.8,22.9c44.85,32.95,89.25,80.9,126.75,134.2,73.6,104.65,116.2,244.85,10.6,308.3" transform="translate(0.001 0.991)" fill="#fde6d6"/>
    </g>
  </g>
  <path id="Fill_4" data-name="Fill 4" d="M7.033,49.12c-8.685-17.51-11.865-39.67,5.55-46.8,19.45-7.965,50.44,4.915,59.46,34.14C77.808,55.13,75.828,81.2,59.9,91.22,46.268,99.8,17.688,70.6,7.033,49.12" transform="translate(410.185 106.814)" fill="#e8e5ea"/>
  <path id="Fill_6" data-name="Fill 6" d="M197.84,492.53h-.01a82.26,82.26,0,0,1-10.025-.825.621.621,0,0,1-.525-.7.6.6,0,0,1,.593-.539.706.706,0,0,1,.112.009,80.711,80.711,0,0,0,9.87.81.625.625,0,0,1-.015,1.25Zm10-.43a.627.627,0,0,1-.069-1.25,79.284,79.284,0,0,0,9.789-1.665.637.637,0,0,1,.152-.018.631.631,0,0,1,.526.957.606.606,0,0,1-.387.277,81.03,81.03,0,0,1-9.945,1.695A.291.291,0,0,1,207.84,492.1Zm-29.73-2.38a.826.826,0,0,1-.155-.02,96.3,96.3,0,0,1-9.575-3.09.621.621,0,0,1-.353-.33.611.611,0,0,1-.013-.475.62.62,0,0,1,.581-.4.614.614,0,0,1,.225.043,96.2,96.2,0,0,0,9.45,3.046.628.628,0,0,1,.385.295.607.607,0,0,1,.06.465A.619.619,0,0,1,178.11,489.72Zm49.185-2.155a.626.626,0,0,1-.21-1.215c1.472-.533,2.958-1.115,4.415-1.73l1.152-.488.009,0c1.2-.508,2.441-1.033,3.659-1.554a.636.636,0,0,1,.243-.048.624.624,0,0,1,.577.374.631.631,0,0,1,0,.488.6.6,0,0,1-.328.331c-1.586.679-3.211,1.371-4.83,2.055-1.534.644-3.039,1.233-4.475,1.75A.648.648,0,0,1,227.3,487.565Zm-67.86-4.91a.62.62,0,0,1-.28-.065c-2.973-1.463-5.943-3.083-8.83-4.815a.614.614,0,0,1-.283-.379.625.625,0,0,1,.928-.691c2.92,1.744,5.861,3.348,8.741,4.766a.624.624,0,0,1-.275,1.184Zm86.325-2.845a.626.626,0,0,1-.25-1.2c3.311-1.444,6.3-2.766,9.139-4.04a.626.626,0,0,1,.516,1.14c-3.286,1.47-6.281,2.793-9.156,4.045A.622.622,0,0,1,245.76,479.81Zm-103.505-7.4a.635.635,0,0,1-.355-.115c-2.711-1.905-5.415-3.937-8.035-6.04a.627.627,0,0,1-.1-.88.649.649,0,0,1,.494-.231.607.607,0,0,1,.386.136c2.695,2.158,5.376,4.173,7.969,5.99a.629.629,0,0,1,.26.406.621.621,0,0,1-.1.47A.631.631,0,0,1,142.255,472.41ZM264,471.635a.622.622,0,0,1-.564-.365.613.613,0,0,1-.019-.479.605.605,0,0,1,.324-.345c3.055-1.414,6.1-2.846,9.06-4.255a.639.639,0,0,1,.835.3.614.614,0,0,1,.026.473.626.626,0,0,1-.322.361c-2.867,1.368-5.837,2.759-9.08,4.255A.577.577,0,0,1,264,471.635ZM282.085,463a.625.625,0,0,1-.28-1.184c3.424-1.7,6.263-3.136,8.934-4.515a.6.6,0,0,1,.279-.068.64.64,0,0,1,.561.338.632.632,0,0,1-.27.845c-2.991,1.541-6,3.061-8.951,4.52A.618.618,0,0,1,282.085,463ZM126.62,459.915a.614.614,0,0,1-.415-.16c-2.48-2.223-4.938-4.542-7.305-6.895a.62.62,0,0,1,0-.886.61.61,0,0,1,.44-.184.624.624,0,0,1,.439.18c2.309,2.294,4.753,4.6,7.266,6.855a.625.625,0,0,1-.42,1.09Zm173.265-6.1a.623.623,0,0,1-.551-.325.632.632,0,0,1,.25-.85c2.98-1.605,5.927-3.232,8.761-4.835a.623.623,0,0,1,.307-.081.625.625,0,0,1,.308,1.171c-2.8,1.58-5.751,3.21-8.78,4.846A.63.63,0,0,1,299.885,453.815Zm-187.505-7.98a.63.63,0,0,1-.455-.2c-2.207-2.385-4.451-4.912-6.67-7.51a.637.637,0,0,1-.146-.465.6.6,0,0,1,.216-.415.641.641,0,0,1,.41-.149.609.609,0,0,1,.471.219c2.114,2.476,4.346,4.989,6.635,7.47a.625.625,0,0,1-.46,1.049Zm204.94-1.89a.626.626,0,0,1-.32-1.165c3.011-1.8,5.879-3.553,8.525-5.225a.657.657,0,0,1,.334-.092.626.626,0,0,1,.531.287.638.638,0,0,1-.2.865c-2.891,1.817-5.769,3.58-8.555,5.24A.618.618,0,0,1,317.32,443.945Zm16.934-10.69a.637.637,0,0,1-.519-.28.623.623,0,0,1,.175-.865c2.748-1.844,5.514-3.758,8.22-5.69a.6.6,0,0,1,.359-.118.63.63,0,0,1,.372,1.138c-2.693,1.921-5.471,3.842-8.256,5.71A.633.633,0,0,1,334.255,433.255ZM99.37,430.605a.636.636,0,0,1-.49-.235c-2.021-2.556-4.077-5.238-6.11-7.97a.615.615,0,0,1-.115-.463.625.625,0,0,1,.245-.411.639.639,0,0,1,.373-.12.632.632,0,0,1,.507.25c2.029,2.737,4.075,5.407,6.08,7.934a.625.625,0,0,1-.491,1.015ZM350.54,421.6a.611.611,0,0,1-.495-.245.623.623,0,0,1-.124-.464.616.616,0,0,1,.239-.41c2.752-2.115,5.383-4.208,7.82-6.22a.613.613,0,0,1,.4-.147.627.627,0,0,1,.4,1.107c-2.551,2.109-5.194,4.212-7.855,6.25A.611.611,0,0,1,350.54,421.6ZM87.435,414.52a.623.623,0,0,1-.515-.27c-1.9-2.726-3.786-5.525-5.615-8.321a.6.6,0,0,1-.094-.459.635.635,0,0,1,.274-.405.617.617,0,0,1,.335-.1.639.639,0,0,1,.53.284c1.76,2.689,3.643,5.476,5.6,8.285a.621.621,0,0,1,.1.47.614.614,0,0,1-.259.4A.624.624,0,0,1,87.435,414.52Zm278.535-5.685a.625.625,0,0,1-.419-1.09c2.517-2.257,4.972-4.551,7.294-6.82a.616.616,0,0,1,.434-.175.624.624,0,0,1,.627.634.615.615,0,0,1-.19.436c-2.342,2.286-4.808,4.592-7.331,6.854A.639.639,0,0,1,365.97,408.835ZM76.435,397.77a.633.633,0,0,1-.53-.3c-1.752-2.832-3.5-5.722-5.185-8.59a.633.633,0,0,1,.225-.859.608.608,0,0,1,.311-.085.636.636,0,0,1,.544.31c1.77,3.008,3.509,5.89,5.17,8.565a.624.624,0,0,1,.075.475.616.616,0,0,1-.28.384A.6.6,0,0,1,76.435,397.77Zm303.84-2.93a.627.627,0,0,1-.622-.6.617.617,0,0,1,.167-.449c2.249-2.411,4.478-4.922,6.625-7.465a.647.647,0,0,1,.485-.218.611.611,0,0,1,.4.143.627.627,0,0,1,.221.43.62.62,0,0,1-.147.455c-2.14,2.533-4.383,5.06-6.665,7.51A.631.631,0,0,1,380.275,394.84ZM66.285,380.495a.627.627,0,0,1-.545-.32c-1.572-2.819-3.184-5.785-4.79-8.816a.631.631,0,0,1-.047-.477.609.609,0,0,1,.3-.368.678.678,0,0,1,.293-.067.617.617,0,0,1,.552.327c1.719,3.23,3.283,6.105,4.781,8.79a.624.624,0,0,1-.24.85A.6.6,0,0,1,66.285,380.495Zm326.88-.945a.641.641,0,0,1-.38-.125.629.629,0,0,1-.121-.875c2.031-2.684,3.98-5.412,5.8-8.11a.633.633,0,0,1,.522-.277.624.624,0,0,1,.513.978c-1.845,2.748-3.807,5.5-5.829,8.165A.631.631,0,0,1,393.165,379.55Zm11.16-16.6a.614.614,0,0,1-.32-.086.621.621,0,0,1-.22-.855c1.716-2.9,3.34-5.843,4.825-8.744a.617.617,0,0,1,.84-.27.628.628,0,0,1,.275.84c-1.533,2.984-3.17,5.949-4.865,8.81A.621.621,0,0,1,404.325,362.95ZM56.9,362.79a.625.625,0,0,1-.56-.34c-1.539-3.057-3.031-6.085-4.435-9a.625.625,0,0,1,.3-.835.664.664,0,0,1,.275-.06.618.618,0,0,1,.561.351c1.551,3.22,3,6.157,4.42,8.979a.63.63,0,0,1,.037.479.618.618,0,0,1-.592.427Zm356.566-17.64a.6.6,0,0,1-.256-.055.623.623,0,0,1-.319-.82c1.3-2.956,2.556-6.067,3.73-9.245a.624.624,0,1,1,1.17.435c-1.139,3.1-2.4,6.229-3.755,9.31A.629.629,0,0,1,413.465,345.15Zm-365.251-.415a.624.624,0,0,1-.565-.365c-1.443-3.153-2.822-6.233-4.1-9.155a.634.634,0,0,1,.325-.825.646.646,0,0,1,.247-.049.63.63,0,0,1,.579.375c1.366,3.13,2.741,6.2,4.085,9.135a.62.62,0,0,1-.571.885Zm372.16-18.35a.606.606,0,0,1-.18-.025.625.625,0,0,1-.415-.779c.962-3.2,1.833-6.436,2.59-9.62a.624.624,0,0,1,.611-.481.691.691,0,0,1,.144.015.635.635,0,0,1,.465.755c-.779,3.258-1.659,6.519-2.615,9.69A.628.628,0,0,1,420.375,326.385Zm-380.18-.015a.622.622,0,0,1-.575-.384c-1.2-2.873-2.437-5.912-3.78-9.291a.624.624,0,0,1,.578-.854.632.632,0,0,1,.582.39c1.162,2.93,2.395,5.964,3.77,9.275a.618.618,0,0,1-.335.815A.586.586,0,0,1,40.195,326.37Zm-7.4-18.62a.617.617,0,0,1-.58-.405c-1.125-2.971-2.293-6.128-3.47-9.384a.63.63,0,0,1,.375-.805.655.655,0,0,1,.207-.034.626.626,0,0,1,.592.414c1.124,3.117,2.288,6.268,3.461,9.365a.627.627,0,0,1-.36.8A.592.592,0,0,1,32.8,307.75Zm392.225-.81a.849.849,0,0,1-.11-.01.63.63,0,0,1-.5-.725c.573-3.208,1.074-6.526,1.49-9.86a.629.629,0,0,1,.617-.55.572.572,0,0,1,.078.005.626.626,0,0,1,.544.7c-.413,3.333-.917,6.67-1.5,9.921A.627.627,0,0,1,425.02,306.94Zm-399-18.01a.624.624,0,0,1-.59-.419c-1.1-3.222-2.171-6.42-3.175-9.5a.625.625,0,0,1,.405-.786.629.629,0,0,1,.191-.03.622.622,0,0,1,.594.43c1.1,3.381,2.141,6.484,3.17,9.485a.633.633,0,0,1-.39.795A.737.737,0,0,1,26.02,288.93Zm401.455-1.84h-.04a.629.629,0,0,1-.581-.671c.236-3.345.392-6.7.465-9.959a.609.609,0,0,1,.64-.61.627.627,0,0,1,.61.64c-.074,3.316-.232,6.687-.47,10.02A.625.625,0,0,1,427.475,287.09Zm-407.65-17.2a.622.622,0,0,1-.595-.44l-.15-.485c-1.03-3.354-1.985-6.588-2.84-9.61a.621.621,0,0,1,.43-.769.684.684,0,0,1,.172-.022.611.611,0,0,1,.6.452c.929,3.259,1.885,6.486,2.84,9.59l.14.475a.609.609,0,0,1-.039.469.626.626,0,0,1-.371.311A.575.575,0,0,1,19.825,269.89Zm408.01-2.8H427.8a.629.629,0,0,1-.625-.595c-.172-3.3-.47-6.639-.885-9.921a.621.621,0,0,1,.54-.695l.064,0a.613.613,0,0,1,.635.542c.427,3.4.728,6.765.9,10.01A.628.628,0,0,1,427.835,267.09ZM14.2,250.155a.629.629,0,0,1-.6-.47c-.871-3.331-1.691-6.6-2.435-9.725a.628.628,0,0,1,.46-.755.615.615,0,0,1,.145-.017.631.631,0,0,1,.61.477c.846,3.519,1.641,6.694,2.43,9.706a.626.626,0,0,1-.445.765A.959.959,0,0,1,14.2,250.155Zm411.124-2.905a.62.62,0,0,1-.609-.509c-.624-3.205-1.366-6.475-2.2-9.72a.626.626,0,0,1,.45-.761.6.6,0,0,1,.151-.019.632.632,0,0,1,.608.469c.864,3.341,1.611,6.636,2.22,9.795a.625.625,0,0,1-.495.731A.5.5,0,0,1,425.325,247.25ZM9.545,230.67a.623.623,0,0,1-.61-.5c-.714-3.3-1.386-6.61-2-9.83a.607.607,0,0,1,.09-.463.622.622,0,0,1,.4-.266.527.527,0,0,1,.14-.019.624.624,0,0,1,.59.514c.631,3.3,1.3,6.6,1.994,9.8a.618.618,0,0,1-.48.74A.549.549,0,0,1,9.545,230.67Zm410.78-2.8a.62.62,0,0,1-.595-.429c-1-3.116-2.1-6.285-3.29-9.42a.628.628,0,0,1,.017-.48.613.613,0,0,1,.348-.325.57.57,0,0,1,.231-.049.626.626,0,0,1,.574.409c1.177,3.105,2.291,6.294,3.31,9.48a.628.628,0,0,1-.039.48.62.62,0,0,1-.366.311A.655.655,0,0,1,420.325,227.875ZM5.77,211a.629.629,0,0,1-.615-.525c-.555-3.287-1.072-6.623-1.535-9.915a.622.622,0,0,1,.53-.7.551.551,0,0,1,.094-.008.632.632,0,0,1,.611.537c.454,3.216.969,6.542,1.53,9.886a.611.611,0,0,1-.1.465.627.627,0,0,1-.4.255l-.015,0A.7.7,0,0,1,5.77,211Zm407.495-1.85a.632.632,0,0,1-.575-.374c-1.308-3.019-2.711-6.073-4.17-9.076a.625.625,0,0,1,.29-.834.6.6,0,0,1,.274-.066.634.634,0,0,1,.562.35c1.459,3.008,2.87,6.078,4.195,9.125a.629.629,0,0,1-.325.825A.723.723,0,0,1,413.265,209.145ZM2.955,191.155a.622.622,0,0,1-.62-.554c-.373-3.188-.718-6.546-1.024-9.98a.626.626,0,0,1,.564-.68c.025,0,.049,0,.072,0a.585.585,0,0,1,.608.568c.28,3.188.623,6.538,1.02,9.955a.613.613,0,0,1-.129.455.626.626,0,0,1-.421.235A.369.369,0,0,1,2.955,191.155Zm401.566-.024a.628.628,0,0,1-.55-.33c-1.57-2.917-3.217-5.849-4.9-8.715a.637.637,0,0,1,.225-.855.59.59,0,0,1,.312-.088.632.632,0,0,1,.543.314c1.711,2.921,3.364,5.867,4.915,8.754a.627.627,0,0,1-.55.921ZM394.4,173.84a.625.625,0,0,1-.53-.291c-1.744-2.75-3.593-5.559-5.494-8.349a.633.633,0,0,1,.165-.87.605.605,0,0,1,.349-.109.632.632,0,0,1,.522.273c1.918,2.817,3.774,5.638,5.515,8.385a.622.622,0,0,1-.526.96ZM1.225,171.2H1.19a.628.628,0,0,1-.625-.59c-.2-3.458-.352-6.832-.44-10.03a.626.626,0,0,1,.169-.449.617.617,0,0,1,.435-.2H.75a.632.632,0,0,1,.625.61c.089,3.2.237,6.566.44,9.99A.637.637,0,0,1,1.225,171.2Zm381.9-13.915a.609.609,0,0,1-.5-.256c-2.024-2.775-4.044-5.467-6-8a.632.632,0,0,1,.115-.879.618.618,0,0,1,.875.114c1.95,2.517,3.978,5.219,6.025,8.031a.627.627,0,0,1-.135.869A.617.617,0,0,1,383.125,157.28ZM.625,151.165a.634.634,0,0,1-.625-.63c.015-3.331.089-6.708.22-10.035a.61.61,0,0,1,.607-.6H.87a.625.625,0,0,1,.435.2.617.617,0,0,1,.164.448c-.131,3.313-.2,6.674-.22,9.99A.626.626,0,0,1,.625,151.165Zm370.246-9.74a.631.631,0,0,1-.485-.23c-2.1-2.561-4.264-5.137-6.44-7.655a.613.613,0,0,1-.149-.452.621.621,0,0,1,.219-.428.609.609,0,0,1,.4-.153.629.629,0,0,1,.476.218c2.223,2.572,4.4,5.156,6.46,7.681a.613.613,0,0,1,.139.454.627.627,0,0,1-.624.566ZM1.435,131.15H1.385a.63.63,0,0,1-.575-.67c.264-3.358.6-6.721,1-10a.61.61,0,0,1,.639-.546l.056,0a.614.614,0,0,1,.414.23.626.626,0,0,1,.13.465c-.394,3.284-.727,6.628-.99,9.94A.618.618,0,0,1,1.435,131.15Zm356.335-4.89a.623.623,0,0,1-.46-.205c-2.315-2.542-4.611-5-6.825-7.32a.631.631,0,0,1,.02-.88.646.646,0,0,1,.438-.174.607.607,0,0,1,.446.194c2.227,2.324,4.53,4.794,6.845,7.34a.615.615,0,0,1-.045.88A.6.6,0,0,1,357.77,126.26Zm-13.84-14.49a.6.6,0,0,1-.439-.185c-2.335-2.324-4.748-4.673-7.17-6.98a.625.625,0,0,1,.433-1.077.606.606,0,0,1,.426.172c2.421,2.3,4.84,4.66,7.19,7a.623.623,0,0,1,0,.885A.6.6,0,0,1,343.93,111.77Zm-340.079-.5a.689.689,0,0,1-.089-.008l-.016,0a.621.621,0,0,1-.51-.72c.552-3.306,1.192-6.624,1.9-9.86a.629.629,0,0,1,.621-.491.662.662,0,0,1,.123.012.626.626,0,0,1,.475.745c-.692,3.162-1.328,6.459-1.89,9.8A.629.629,0,0,1,3.85,111.275ZM329.415,97.95a.613.613,0,0,1-.42-.165c-2.491-2.263-5.016-4.507-7.505-6.67a.605.605,0,0,1-.212-.419.627.627,0,0,1,.151-.462.608.608,0,0,1,.464-.213.645.645,0,0,1,.416.153c2.376,2.061,4.838,4.248,7.525,6.685a.627.627,0,0,1-.419,1.09ZM8.16,91.72a.618.618,0,0,1-.17-.02.632.632,0,0,1-.436-.775c.927-3.312,1.929-6.54,2.981-9.595a.641.641,0,0,1,.592-.427.577.577,0,0,1,.2.037.634.634,0,0,1,.39.8c-1.064,3.089-2.06,6.3-2.96,9.53A.621.621,0,0,1,8.16,91.72Zm306.085-6.95a.635.635,0,0,1-.4-.14c-2.567-2.134-5.183-4.258-7.775-6.314a.622.622,0,0,1-.1-.876.632.632,0,0,1,.492-.234.62.62,0,0,1,.383.13c2.649,2.1,5.274,4.229,7.8,6.33a.623.623,0,0,1-.4,1.105ZM14.7,72.8a.67.67,0,0,1-.24-.045.626.626,0,0,1-.339-.345.615.615,0,0,1,0-.475c1.3-3.1,2.725-6.17,4.23-9.12a.625.625,0,1,1,1.115.565c-1.481,2.9-2.893,5.944-4.195,9.04A.619.619,0,0,1,14.7,72.8Zm283.845-.5a.63.63,0,0,1-.375-.124c-2.81-2.124-5.512-4.126-8.03-5.951a.624.624,0,0,1-.25-.408.613.613,0,0,1,.111-.461.62.62,0,0,1,.875-.14c2.612,1.889,5.32,3.9,8.05,5.965a.622.622,0,0,1-.38,1.119Zm-16.2-11.724a.649.649,0,0,1-.355-.111c-2.665-1.841-5.457-3.723-8.3-5.594a.623.623,0,0,1-.18-.865.636.636,0,0,1,.528-.278.624.624,0,0,1,.337.1c2.763,1.817,5.562,3.7,8.32,5.6a.631.631,0,0,1,.265.408.613.613,0,0,1-.1.462A.639.639,0,0,1,282.335,60.585ZM23.8,55a.618.618,0,0,1-.329-.1.63.63,0,0,1-.205-.86c1.75-2.847,3.64-5.655,5.62-8.345a.633.633,0,0,1,.506-.249.626.626,0,0,1,.37.12.617.617,0,0,1,.13.869c-1.955,2.658-3.826,5.438-5.56,8.26A.607.607,0,0,1,23.8,55Zm241.785-5.421a.625.625,0,0,1-.329-.095c-2.778-1.735-5.654-3.483-8.546-5.195a.62.62,0,0,1-.291-.387.608.608,0,0,1,.071-.468.6.6,0,0,1,.531-.311.63.63,0,0,1,.324.091c2.853,1.687,5.738,3.44,8.575,5.21a.631.631,0,0,1,.194.865A.624.624,0,0,1,265.585,49.575Zm-17.249-10.21a.619.619,0,0,1-.305-.08c-2.858-1.6-5.815-3.2-8.79-4.77a.627.627,0,0,1-.265-.845.636.636,0,0,1,.56-.336.609.609,0,0,1,.286.071c2.949,1.555,5.917,3.167,8.82,4.79a.627.627,0,0,1,.3.377.613.613,0,0,1-.057.472A.624.624,0,0,1,248.335,39.365Zm-212.65-.45a.63.63,0,0,1-.623-.58.628.628,0,0,1,.158-.461c2.231-2.513,4.593-4.936,7.02-7.2a.615.615,0,0,1,.427-.171.627.627,0,0,1,.624.646.617.617,0,0,1-.2.435c-2.413,2.263-4.748,4.659-6.94,7.121A.605.605,0,0,1,35.685,38.915ZM230.6,30.035a.617.617,0,0,1-.275-.065c-3.018-1.489-6.056-2.935-9.031-4.3a.628.628,0,0,1,.265-1.2.616.616,0,0,1,.26.058c2.907,1.336,5.955,2.788,9.059,4.315a.627.627,0,0,1-.28,1.19ZM50.29,25.28a.616.616,0,0,1-.495-.24.628.628,0,0,1,.115-.88c2.648-2.038,5.422-3.974,8.245-5.755a.64.64,0,0,1,.334-.094.622.622,0,0,1,.611.764.613.613,0,0,1-.275.385c-2.8,1.77-5.543,3.686-8.155,5.7A.624.624,0,0,1,50.29,25.28Zm162.1-3.605a.629.629,0,0,1-.245-.049c-3.162-1.344-6.28-2.611-9.265-3.766a.627.627,0,0,1-.355-.81.632.632,0,0,1,.59-.393.651.651,0,0,1,.22.039c3.021,1.169,6.15,2.441,9.3,3.78a.624.624,0,0,1,.335.82A.636.636,0,0,1,212.39,21.675Zm-145.2-7.05a.618.618,0,0,1-.555-.345.63.63,0,0,1,.274-.841c2.96-1.507,6.039-2.91,9.15-4.17a.563.563,0,0,1,.234-.05.629.629,0,0,1,.231,1.21c-3.072,1.242-6.117,2.63-9.05,4.125A.651.651,0,0,1,67.19,14.625Zm126.519-.2a.611.611,0,0,1-.21-.035c-3.046-1.075-6.237-2.133-9.485-3.145a.628.628,0,0,1-.371-.313.606.606,0,0,1-.039-.467.622.622,0,0,1,.59-.441.59.59,0,0,1,.189.031c3.106.963,6.312,2.024,9.53,3.155a.629.629,0,0,1,.359.322.619.619,0,0,1,.026.478A.625.625,0,0,1,193.71,14.43ZM174.575,8.48a.6.6,0,0,1-.165-.02c-3.2-.866-6.458-1.673-9.695-2.4a.618.618,0,0,1-.392-.275.629.629,0,0,1-.083-.474.6.6,0,0,1,.6-.487.675.675,0,0,1,.148.017c3.211.721,6.493,1.532,9.755,2.41a.626.626,0,0,1-.166,1.229ZM85.705,7.1a.622.622,0,0,1-.595-.44.618.618,0,0,1,.41-.78C88.653,4.89,91.915,4,95.215,3.225a.607.607,0,0,1,.142-.017.626.626,0,0,1,.608.482.613.613,0,0,1-.077.47.626.626,0,0,1-.388.279c-3.257.764-6.488,1.65-9.6,2.631A.634.634,0,0,1,85.705,7.1Zm69.33-3a.691.691,0,0,1-.11-.011c-3.212-.576-6.533-1.081-9.87-1.5a.631.631,0,0,1-.419-.238.623.623,0,0,1,.51-1.005l.064,0c3.257.406,6.6.914,9.935,1.51a.627.627,0,0,1,.5.724A.626.626,0,0,1,155.035,4.1Zm-49.84-1.516a.625.625,0,0,1-.5-1,.621.621,0,0,1,.412-.244C108.313.873,111.68.522,115.11.3a.636.636,0,0,1,.1-.009.586.586,0,0,1,.562.594.617.617,0,0,1-.58.66c-3.351.223-6.685.572-9.91,1.035A.5.5,0,0,1,105.195,2.585Zm29.97-.959h-.045c-3.326-.229-6.677-.355-9.959-.375a.619.619,0,0,1-.625-.625A.625.625,0,0,1,125.16,0c3.313.02,6.694.146,10.049.375a.633.633,0,0,1,.581.67A.631.631,0,0,1,135.165,1.625Z" transform="translate(6.32 65.217)" fill="#d8d5db"/>
  <g id="Group_10" data-name="Group 10" transform="translate(45 78.31)">
    <path id="Clip_9-2" data-name="Clip 9" d="M0,0H363.688V491.181H0Z" transform="translate(1.75 3.819)" fill="none"/>
    <g id="Group_10-2" data-name="Group 10" clip-path="url(#clip-path-2)">
      <path id="Fill_8" data-name="Fill 8" d="M309.218,491.181h0a375.676,375.676,0,0,1-66.054-6.222A477.963,477.963,0,0,1,174.85,467.25c-11.71-3.937-23.283-8.328-34.4-13.05,1.817-23.125,4.139-41.848,6.9-55.651l-.2-.027c-.962-.138-1.957-.281-2.9-.423,9.21-31.2,15.805-76.836,19.6-135.65C154,280.338,145.7,294.4,141.6,301a17.946,17.946,0,0,1-6.164,8.158,17.625,17.625,0,0,1-10.468,3.306A26.585,26.585,0,0,1,113,309.3c-12.377-6.336-33.981-28.451-49.926-45.888C44.9,243.536,28.4,223.53,23.95,217.3a4.013,4.013,0,0,1-1.25-.4c-2.457-1.332-7.179-5.9-12.031-11.644-3.88-4.592-8.3-10.525-9.068-13.406-.644-2.437-.342-7.221.768-12.188a34.662,34.662,0,0,1,1.84-5.981c.741-1.715,1.5-2.746,2.192-2.981a5.162,5.162,0,0,1,1.7-.261c1.75,0,4.038.655,7.2,2.061L0,138.15l3.25-1.45,11.9,26.6c.926-2.089,2.644-3.548,4.176-3.548.951,0,2.256.546,3.074,3.148a38.061,38.061,0,0,0,6.856,12.366A39.243,39.243,0,0,1,34.2,183.05c.219.437.419.9.65,1.5.066.165.133.376.2.581.034.108.068.216.1.319a1.793,1.793,0,0,0,.135.343c.035.074.075.158.114.257a.975.975,0,0,1,.05.35,60.209,60.209,0,0,1,1.85,18.55.282.282,0,0,0,.055.041c.026.016.046.028.046.059,5.561,6.025,17.807,16.267,35.412,29.619,13.377,10.145,29.9,22.1,44.187,31.982,4.8-10.471,11.492-24.078,19.35-39.35l-9.6-4.75.011-.024c.76-1.583,7.692-15.933,17.09-32.257,5.784-10.048,11.344-18.838,16.524-26.127,6.475-9.111,12.372-15.887,17.527-20.141,6.338-6.039,15.489-10.547,27.2-13.4a66.883,66.883,0,0,0,1.05-7.1c.348-3.189.55-6.588.6-10.1a30.371,30.371,0,0,1-10.733-1.836,17.333,17.333,0,0,1-6.969-4.888c-8.172-9.623-5.319-28.332-2.3-48.139.366-2.4.744-4.882,1.1-7.337.436-3.1,1.057-5.9,1.55-8a1.084,1.084,0,0,1-.075.125,1.085,1.085,0,0,0-.075.125l-2.3-1.05a11.352,11.352,0,0,1,3.9-4.7c.616-1.9,1.156-3.446,1.7-4.85a98.188,98.188,0,0,1,.95-11.2c-2.025-.55-3.232-1.421-3.588-2.588-.422-1.386.348-3.224,2.288-5.463a18.825,18.825,0,0,1,6.754-4.411A63.354,63.354,0,0,1,209.706,5.8,134.215,134.215,0,0,1,236.55,2.65c.837-.016,1.677-.024,2.5-.024A83.862,83.862,0,0,1,255,3.95c4.749.955,8,2.368,9.649,4.2.772-2.512-.374-5.768-1.05-6.951L265.8,0l.013.025c.418.816,2.442,5.079,1.237,8.925a1,1,0,0,1-.072.117.947.947,0,0,0-.128.233c1.813.4,3.2,2.183,4.118,5.313A45.412,45.412,0,0,1,272.35,25.55,179,179,0,0,1,270.9,50.7a9.626,9.626,0,0,1,2.263,4.431,12.677,12.677,0,0,1-.213,5.969,24.286,24.286,0,0,1-3.519,6.994,20.1,20.1,0,0,1-3.9,4.151A13.79,13.79,0,0,1,260.1,74.9c-1.1,16.423-2.154,39.211-2.05,53.1a80.782,80.782,0,0,1,20.457,4.732A42.982,42.982,0,0,1,292.4,141.25a.258.258,0,0,0,.075.051.262.262,0,0,1,.075.05c4.8,3.216,10.788,9.325,17.794,18.159,5.6,7.066,11.871,15.882,18.624,26.2,11.5,17.572,20.541,33.628,20.631,33.788l-12.3,4.2c11.3,28.444,21.042,56.728,23.75,65.55v.1c1.245,4.557,2.059,11.491,2.42,20.61.316,7.982.288,17.673-.083,28.8-.837,25.115-3.1,49.374-4.037,58.638-1.017,9.559-1.9,16.626-2.5,19.9.067.117.146.23.223.34a2.2,2.2,0,0,1,.377.709c.757,2.709.765,9.3.018,16.788-.6,5.989-1.782,13.288-3.319,15.813-1.2,2-4.419,4.823-8.4,7.371-3.944,2.523-7.533,4.091-9.364,4.091a1.849,1.849,0,0,1-.835-.163c-1.253-.651-2.709-2.265-4.212-4.669a50.9,50.9,0,0,1-4.137-8.532c.109,4.384.217,8.787.323,13.1l.02.832.005.205c.179,7.267.348,14.131.5,20.218a21.617,21.617,0,0,1-1.05,7.25C321.228,491,315.246,491.181,309.218,491.181Zm17.669-90.73c-.005,0-.556,0-1.486.1.314,4.761.647,12.387,1.049,24a40.121,40.121,0,0,1,4.5-7.249,15.628,15.628,0,0,1,7.85-4.75c0-4.24-.259-9.618-.75-15.55-2.82-35.2-12.445-92.3-13.8-99.7a12.572,12.572,0,0,1-.169-1.733v-.012c-.009-.182-.018-.37-.031-.555-1.086-2.03-2.264-4.37-3.6-7.151,3.774,45.519,6.167,86.229,6.4,108.9.049,1.3.049,2.52.049,3.7h-.013Z" transform="translate(1.75 3.819)" fill="#d1cdd3"/>
    </g>
  </g>
  <path id="Fill_11" data-name="Fill 11" d="M196.711,33.675l-32.6-21.27s-32.4,59.615-48.37,94.5C91.461,90.085,48.761,58.95,36.156,45.27c-.035-.035-.07-.055-.1-.09a60.75,60.75,0,0,0-1.84-18.54,3.634,3.634,0,0,0-.08-.36c-.07-.225-.165-.405-.24-.62-.1-.28-.19-.635-.29-.875-.265-.645-.47-1.115-.655-1.52C29.6,15.91,24.286,12.97,21.156,3.15c-2.18-6.855-8.465-1.105-7.845,3.84,0,0,.935,3.21,1.99,6.3-4.155-1.98-7.745-3.18-10.165-2.365C2.206,11.91-1.069,26.78.336,32.1c1.38,5.23,15.75,22.14,21.13,25.05a3.741,3.741,0,0,0,1.22.39c8.675,12.115,66.025,80.22,89.08,91.98,14.28,7.285,25.005,1.01,28.59-8.27,10.9-17.695,43.885-75.285,56.355-107.57" transform="translate(83.395 241.895)" fill="#ffad69"/>
  <path id="Fill_13" data-name="Fill 13" d="M75.67,18.335C80.61,43.185,60.75,113.9,60.75,113.9L0,84.085S62.64-47.22,75.67,18.335" transform="translate(208.872 220.61)" fill="#ea3939"/>
  <path id="Fill_15" data-name="Fill 15" d="M188.6,89.5a19.268,19.268,0,0,1-.1,2.4,230.215,230.215,0,0,1-36.35,4.85C105.45,99.6,51.75,90.85,0,73.35,1.8,46.65,4.6,18.8,8.9,0L152,2.85l11.2.25,21.3.4,1.25.05c1,11.4,2.2,57.55,2.85,85.95" transform="translate(221.601 476.029)" fill="#232323"/>
  <path id="Fill_17" data-name="Fill 17" d="M102.085.123C141.355,1.418,154.63,14.673,161.4,37.6c7.685,26.03,21.225,183.25,21.225,235.785,0,0-117.52,8.325-182.625-2.345C20.41,202.088,22.62,78.1,23.03,41.168c.3-27.715,29.27-42.69,79.055-41.045" transform="translate(226.383 209.174)" fill="#ff4e4a"/>
  <path id="Fill_19" data-name="Fill 19" d="M19.28,49.462c-3.87-2.91-24.05-.27-18.235-41.355C3.16-6.883,17.24,3.122,27.2,5.122s3.63,45.08,3.63,45.08Z" transform="translate(274.593 95.545)" fill="#232323"/>
  <path id="Fill_21" data-name="Fill 21" d="M60.541,0c-1.675,10.89-5.025,69.81-3.63,83.49S-7.874,101.085.781,86,3.3,20.94,3.3,20.94Z" transform="translate(283.576 135.165)" fill="#ffad69"/>
  <path id="Fill_23" data-name="Fill 23" d="M52.655,0,0,19.28S3.555,48.4,1.41,68.89c40.15-3.1,50.455-53.815,51.135-63.58.11-1.84.165-3.615.11-5.31" transform="translate(286.879 136.831)" fill="#d88344"/>
  <path id="Fill_25" data-name="Fill 25" d="M4.16,47.537C-.72,81.172-9,114.707,31.765,109.187s47.11-57.8,46.99-67.655c-.635-52.615-65-60.135-74.6,6.005" transform="translate(265.814 85.775)" fill="#ffad69"/>
  <path id="Fill_27" data-name="Fill 27" d="M77.028,9.265c.05-.13.16-.22.205-.35C78.558,4.79,76.118.195,76.013,0l-2.2,1.185c.02.04,2.02,3.845,1.04,6.94-8.93-9.865-62.875-5.66-72.47,5.485-12.19,14.16,25.3,7.775,46.425,4.2,2.96,12.37,16.37,32.855,20.235,35.765L80.6,54.32S86.9,11.435,77.028,9.265" transform="translate(271.937 82.146)" fill="#232323"/>
  <path id="Fill_29" data-name="Fill 29" d="M79.23,243.68c2.59-14.39,11.12-102.785,4.215-127.915-.01-.04,0-.08-.015-.125C78.61,99.91,54.675,32.1,37.345,0L0,10.96S31.255,92.53,46.41,121.38a17.863,17.863,0,0,0,.195,2.335c2.23,11.9,14.69,87.4,14.55,115.215a15.872,15.872,0,0,0-7.805,4.77c-2.845,3.25-7.805,12.585-7.455,16.725.995,11.815,7.56,25.89,12.055,28.215,2.75,1.42,15.71-6.565,18.555-11.27,2.8-4.63,4.96-26.715,3.31-32.6a4.739,4.739,0,0,0-.585-1.085" transform="translate(359.758 255.734)" fill="#ffad69"/>
  <path id="Fill_31" data-name="Fill 31" d="M26.656,6.38C47.721,20.46,83.681,84.5,83.681,84.5L19.646,106.38s-48.56-137.14,7.01-100" transform="translate(348.032 217.106)" fill="#ff4e4a"/>
  <path id="Fill_33" data-name="Fill 33" d="M4.723,2.791c.13,1.64-.755,3.045-1.985,3.145S.408,4.786.278,3.146,1.033.1,2.263.006s2.325,1.145,2.46,2.785" transform="translate(299.585 128.857)" fill="#232323"/>
  <path id="Fill_35" data-name="Fill 35" d="M4.723,2.791c.13,1.64-.755,3.045-1.985,3.145S.408,4.786.278,3.151,1.033.1,2.263.006s2.33,1.145,2.46,2.785" transform="translate(273.613 129.545)" fill="#232323"/>
  <path id="Fill_37" data-name="Fill 37" d="M10.065,6.7A9.407,9.407,0,0,0,.55,2.644L0,.2a11.824,11.824,0,0,1,12.16,5.13Z" transform="translate(300.629 115.747)" fill="#232323"/>
  <path id="Fill_39" data-name="Fill 39" d="M2.27,7.916,0,6.876A11.806,11.806,0,0,1,11.265.011l-.175,2.5a9.345,9.345,0,0,0-8.82,5.41" transform="translate(269.11 117.645)" fill="#232323"/>
  <path id="Fill_41" data-name="Fill 41" d="M2.75,10.88A16.447,16.447,0,0,1,0,10.685L.455,8.23C.915,8.315,11.89,10.175,18,0l2.14,1.29a19.691,19.691,0,0,1-17.4,9.59" transform="translate(293.211 151.736)" fill="#232323"/>
  <path id="Fill_43" data-name="Fill 43" d="M0,21.68,6.36,0,8.755.7,3.35,19.135,12.1,19.02l.035,2.5Z" transform="translate(276.739 129.542)" fill="#d88344"/>
  <path id="Fill_45" data-name="Fill 45" d="M32.62,65.855l-3.27,1.46L0,1.46,3.265,0Z" transform="translate(82.142 218.827)" fill="#232323"/>
  <path id="Fill_47" data-name="Fill 47" d="M4.095,9.641c-3.685,8.3-8.3,16.33,3.27,17.82s16.945-11.49,17.6-14.035c3.5-13.57-13.63-20.1-20.87-3.785" transform="translate(330.135 129.805)" fill="#ffad69"/>
  <path id="Fill_49" data-name="Fill 49" d="M125.08,0H7.425A7.422,7.422,0,0,0,0,7.42V49.315A7.426,7.426,0,0,0,7.425,56.74H14.59l8.08,10.8a3.6,3.6,0,0,0,6.355-1.205l2.62-9.59H125.08a7.422,7.422,0,0,0,7.42-7.425V7.42A7.417,7.417,0,0,0,125.08,0" transform="translate(36.146 0.002)" fill="#4d8dff"/>
  <path id="Clip_52-2" data-name="Clip 52" d="M0,573.31H519.785V0H0Z" fill="none"/>
  <g id="Mask_Group_2" data-name="Mask Group 2" clip-path="url(#clip-path-3)">
    <path id="Fill_51" data-name="Fill 51" d="M0,3.75H104.025V1.25H0Z" transform="translate(47.705 9.745)" fill="#fff"/>
    <path id="Fill_53" data-name="Fill 53" d="M0,3.75H68.69V1.25H0Z" transform="translate(47.705 21.575)" fill="#fff"/>
    <path id="Fill_54" data-name="Fill 54" d="M0,3.75H85.86V1.25H0Z" transform="translate(47.705 33.405)" fill="#fff"/>
    <path id="Fill_55" data-name="Fill 55" d="M97.415,0h-90A7.421,7.421,0,0,0,0,7.42V49.315A7.422,7.422,0,0,0,7.42,56.74h7.165l8.08,10.8A3.6,3.6,0,0,0,29.02,66.33l2.62-9.59H97.415a7.422,7.422,0,0,0,7.42-7.425V7.42A7.421,7.421,0,0,0,97.415,0" transform="translate(36.151 140.193)" fill="#ff4e4a"/>
    <path id="Fill_56" data-name="Fill 56" d="M0,3.75H47.885V1.25H0Z" transform="translate(47.705 149.935)" fill="#fff"/>
    <path id="Fill_57" data-name="Fill 57" d="M0,3.75H16.51V1.25H0Z" transform="translate(105.5 149.935)" fill="#fff"/>
    <path id="Fill_58" data-name="Fill 58" d="M0,3.75H34.015V1.25H0Z" transform="translate(47.705 161.765)" fill="#fff"/>
    <path id="Fill_59" data-name="Fill 59" d="M0,3.75H65.715V1.25H0Z" transform="translate(47.705 173.595)" fill="#fff"/>
    <path id="Fill_60" data-name="Fill 60" d="M7.42,0H116.99A7.42,7.42,0,0,1,124.4,7.42v41.9a7.42,7.42,0,0,1-7.415,7.42h-7.17l-8.08,10.8a3.6,3.6,0,0,1-6.35-1.21l-2.625-9.59H7.42A7.421,7.421,0,0,1,0,49.32V7.42A7.421,7.421,0,0,1,7.42,0" transform="translate(96.008 70.058)" fill="#ffc84d"/>
    <path id="Fill_61" data-name="Fill 61" d="M0,3.75H43.92V1.25H0Z" transform="translate(164.94 79.8)" fill="#fff"/>
    <path id="Fill_62" data-name="Fill 62" d="M0,3.75H95.435V1.25H0Z" transform="translate(113.425 91.635)" fill="#fff"/>
    <path id="Fill_63" data-name="Fill 63" d="M0,3.75H46.89V1.25H0Z" transform="translate(161.97 103.465)" fill="#fff"/>
    <path id="Fill_64" data-name="Fill 64" d="M0,3.75H21.465V1.25H0Z" transform="translate(132.575 103.465)" fill="#fff"/>
    <path id="Fill_65" data-name="Fill 65" d="M37.17,74.345A37.173,37.173,0,1,1,74.345,37.17,37.215,37.215,0,0,1,37.17,74.345Zm0-71.845A34.672,34.672,0,1,0,71.845,37.17,34.709,34.709,0,0,0,37.17,2.5Z" transform="translate(256.268 274.32)" fill="#fff"/>
  </g>
</svg>
