<svg id="Image" xmlns="http://www.w3.org/2000/svg" xmlns:xlink="http://www.w3.org/1999/xlink" width="532.615" height="520.035" viewBox="0 0 532.615 520.035">
  <defs>
    <clipPath id="clip-path">
      <path id="Clip_2" data-name="Clip 2" d="M0,0H532.614V466.087H0Z" transform="translate(0.001 3.913)" fill="none"/>
    </clipPath>
    <clipPath id="clip-path-2">
      <path id="Clip_21" data-name="Clip 21" d="M0,520.035H532.615V0H0Z" fill="none"/>
    </clipPath>
  </defs>
  <g id="Group_3" data-name="Group 3" transform="translate(0 50.035)">
    <path id="Clip_2-2" data-name="Clip 2" d="M0,0H532.614V466.087H0Z" transform="translate(0.001 3.913)" fill="none"/>
    <g id="Group_3-2" data-name="Group 3" clip-path="url(#clip-path)">
      <path id="Fill_1" data-name="Fill 1" d="M499.714,254.25c-1.65,2.65-3.3,5.255-5.05,7.85-15.35,23.055-34.4,45.2-55.495,65.555-.955.945-1.955,1.9-2.95,2.845-3.005,2.85-6.105,5.7-9.205,8.45-5.345,4.9-10.85,9.65-16.45,14.2-2.95,2.5-5.995,4.955-9,7.35-34.895,27.605-72.195,51.755-108.95,69.95-11.395,5.7-22.8,10.8-34.045,15.2-58.7,23.255-113.35,28.705-151.05,5.65a90.154,90.154,0,0,1-30.4-30.945q-1.95-3.232-3.9-6.45c-12.045-20.155-23.55-40.4-33.65-60.755-2.4-4.75-4.645-9.445-6.845-14.2-36.65-78.75-50.6-158.45,1.345-236.85,20.2-30.495,53.355-54.245,93.15-71.05a328.212,328.212,0,0,1,35.5-12.7c6.05-1.9,12.145-3.55,18.4-5.045q11.782-3,23.95-5.255c6.205-1.2,12.4-2.245,18.65-3.15q3.9-.518,7.8-1.05A472.43,472.43,0,0,1,287.269.055C289.714,0,292.164,0,294.569,0c11.25.055,22.4.5,33.4,1.4,2.95.2,5.9.45,8.85.8,56.15,5.455,107.65,21.55,142.65,48.255a137.257,137.257,0,0,1,20.45,19c1.105,1.25,2.155,2.5,3.15,3.795.35.4.655.8,1,1.205a133.975,133.975,0,0,1,17.405,28.1c22.25,48.45,9.245,101.895-21.755,151.695" transform="translate(0.001 3.913)" fill="#fde6d6"/>
    </g>
  </g>
  <path id="Fill_4" data-name="Fill 4" d="M15.826,28.366c-13.49,14.14-23.1,34.36-8.585,46.34,16.2,13.375,49.63,10.27,66.91-14.965,11.045-16.12,16.89-41.6,4.655-55.9C68.331-8.4,32.376,11.016,15.826,28.366" transform="translate(370.714 426.272)" fill="#e8e5ea"/>
  <path id="Fill_6" data-name="Fill 6" d="M146.3,452.45a.608.608,0,0,1-.6-.6.62.62,0,0,1,.6-.651c2.923,0,6.117-.079,10.049-.249a.739.739,0,0,1,.65.6.619.619,0,0,1-.6.65C152.365,452.373,149.251,452.45,146.3,452.45Zm-10.05-.149h0c-3.407-.1-6.833-.3-10.05-.5a.7.7,0,0,1-.6-.7.566.566,0,0,1,.59-.552,1.01,1.01,0,0,1,.11.006c3.023.189,6.539.4,10,.5a.626.626,0,0,1-.049,1.25Zm30.2-.651h-.05a.654.654,0,0,1-.65-.6.62.62,0,0,1,.6-.651c3.161-.239,6.525-.542,10-.9a.61.61,0,0,1,.095-.007.622.622,0,0,1,.606.553.708.708,0,0,1-.6.7C172.974,451.108,169.609,451.411,166.45,451.65Zm-50.2-.85h-.1c-2.764-.33-6.393-.794-9.95-1.45a.656.656,0,0,1-.437-.255.6.6,0,0,1-.113-.445.666.666,0,0,1,.653-.511.762.762,0,0,1,.1.006c3.62.618,6.858,1.078,9.9,1.4a.643.643,0,0,1,.435.248.633.633,0,0,1-.484,1Zm70.2-1.25h-.05a.692.692,0,0,1-.65-.555.592.592,0,0,1,.115-.447.642.642,0,0,1,.435-.248c2.133-.3,4.244-.608,6.479-.939l.014,0c1.123-.166,2.285-.338,3.458-.509a.745.745,0,0,1,.106-.008.576.576,0,0,1,.594.5.622.622,0,0,1-.5.7C192.953,448.611,189.589,449.115,186.45,449.55Zm-90-2.15H96.3a1.347,1.347,0,0,0-.247-.057,1.624,1.624,0,0,1-.2-.043c-3.118-.742-6.178-1.585-9.3-2.455a.639.639,0,0,1-.394-.3.633.633,0,0,1-.056-.49.586.586,0,0,1,.588-.431.773.773,0,0,1,.212.03c3.361.96,6.624,1.8,9.7,2.5a.709.709,0,0,1,.45.745c-.048.15-.1.3-.249.355l-.05.05-.046.021A.635.635,0,0,1,96.45,447.4Zm109.9-1.105h-.1a.651.651,0,0,1-.651-.495.583.583,0,0,1,.5-.7h.1c3.24-.618,6.747-1.358,9.75-2a.57.57,0,0,1,.156-.022.664.664,0,0,1,.594.472.634.634,0,0,1-.5.751c-1.019.254-2.026.455-3,.65C210.938,445.437,208.634,445.889,206.35,446.295Zm19.55-4.2a.637.637,0,0,1-.15-1.25c2.9-.7,5.983-1.5,9.7-2.5a.782.782,0,0,1,.1-.006.739.739,0,0,1,.7.456.729.729,0,0,1-.45.8l-1.226.313c-2.78.711-5.651,1.445-8.524,2.142A.2.2,0,0,1,225.9,442.1ZM77.2,441.65h-.25l-.307-.114c-.831-.309-1.69-.629-2.493-.986l-.426-.175c-2.022-.831-4.11-1.69-6.074-2.63a.646.646,0,0,1-.322-.373.618.618,0,0,1,.021-.477.676.676,0,0,1,.594-.354.569.569,0,0,1,.257.059c1.8.83,3.832,1.769,5.95,2.595,1.034.423,2.066.82,3.25,1.25a.616.616,0,0,1-.2,1.205ZM245.5,436.9h-.2a.622.622,0,0,1-.6-.446.6.6,0,0,1,.45-.754c2.038-.6,4.08-1.227,6.055-1.838l.047-.015,1.448-.447c.4-.114.787-.246,1.161-.373.289-.1.561-.191.839-.277a.681.681,0,0,1,.179-.024.63.63,0,0,1,.221,1.229c-.394.138-.782.26-1.193.388H253.9c-.308.1-.626.2-.951.3-1.99.626-4.113,1.257-6.165,1.868l-.139.041-1.146.341ZM59,433.145a.7.7,0,0,1-.3-.045l-.4-.25c-2.594-1.529-5.337-3.261-8.15-5.15a.7.7,0,0,1-.253-.468.511.511,0,0,1,.1-.382.667.667,0,0,1,.543-.3.485.485,0,0,1,.307.1c2.583,1.788,5.308,3.5,8.1,5.1l.35.25a.618.618,0,0,1,.319.389.557.557,0,0,1-.069.461A.566.566,0,0,1,59,433.145Zm205.449-2.3a.63.63,0,0,1-.564-.9.6.6,0,0,1,.364-.3q1.3-.46,2.627-.923l.044-.016.011,0c2.222-.778,4.519-1.583,6.768-2.408a.435.435,0,0,1,.218-.056.652.652,0,0,1,.582.411.617.617,0,0,1-.4.8l-.751.273c-2.851,1.038-5.8,2.111-8.7,3.077A.414.414,0,0,1,264.45,430.845ZM283.3,423.95a.661.661,0,0,1-.6-.4.713.713,0,0,1,.35-.85c3.017-1.154,6.039-2.393,8.962-3.591l.388-.159a.523.523,0,0,1,.242-.06.624.624,0,0,1,.558.41.529.529,0,0,1,.025.423.665.665,0,0,1-.375.377c-2.554,1.064-5.919,2.458-9.3,3.8a.6.6,0,0,0-.166.032A.354.354,0,0,1,283.3,423.95Zm-240.85-2.1a.549.549,0,0,1-.4-.155c-.816-.63-1.6-1.319-2.361-1.985l-.239-.21c-1.526-1.265-3.068-2.639-5-4.455a.627.627,0,0,1,0-.895.633.633,0,0,1,.9,0q.492.455.985.917c1.018.95,2.068,1.931,3.165,2.877,1.116.962,2.274,1.913,3.35,2.75a.7.7,0,0,1,.1.9A.684.684,0,0,1,42.45,421.85Zm259.4-5.65a.637.637,0,0,1-.55-.4.6.6,0,0,1-.011-.494A.526.526,0,0,1,301.6,415c2.533-1.113,4.863-2.2,7.117-3.253q1.025-.479,2.033-.947a.632.632,0,0,1,.289-.07.6.6,0,0,1,.561.365.565.565,0,0,1,.027.437.64.64,0,0,1-.327.363c-3.075,1.49-6.239,2.9-9.2,4.2A.363.363,0,0,1,301.85,416.2Zm-273.9-8.255a.716.716,0,0,1-.45-.2,3.533,3.533,0,0,1-.282-.331,3.807,3.807,0,0,0-.269-.318c-2.226-2.611-4.091-5-5.7-7.3a.621.621,0,0,1,.1-.85.709.709,0,0,1,.392-.121.6.6,0,0,1,.508.271c1.921,2.681,4.007,5.3,6.2,7.8a.264.264,0,0,1,.1.2.63.63,0,0,1-.149.7A.805.805,0,0,1,27.95,407.945Zm292.1-.345a.679.679,0,0,1-.55-.35.175.175,0,0,0-.011-.051c-.011-.035-.023-.071.011-.1a.547.547,0,0,1,.3-.695c2.291-1.146,5.707-2.869,8.9-4.6a.67.67,0,0,1,.3-.069.606.606,0,0,1,.554.319.648.648,0,0,1-.25.85l-.992.525-.069.036c-2.292,1.213-4.662,2.467-7.09,3.634a3.522,3.522,0,0,1-.4.2,3.56,3.56,0,0,0-.4.2l-.046.021A.634.634,0,0,1,320.05,407.6Zm17.8-9.455a.566.566,0,0,1-.55-.294.621.621,0,0,1-.082-.505A.533.533,0,0,1,337.5,397c2.668-1.475,4.991-2.816,7.1-4.1.282-.154.556-.325.821-.489s.513-.319.779-.467a.68.68,0,0,1,.295-.066.6.6,0,0,1,.555.322.528.528,0,0,1-.05.7c-.035.031-.069.067-.1.1l-.047.048c-2.742,1.617-5.666,3.3-8.494,4.931l-.206.119A.7.7,0,0,1,337.85,398.145ZM16.3,391.65a.574.574,0,0,1-.55-.3c-1.56-2.66-3.081-5.588-4.65-8.95a.646.646,0,0,1,.3-.851.568.568,0,0,1,.255-.059.674.674,0,0,1,.594.359,87.084,87.084,0,0,0,4.6,8.845.641.641,0,0,1-.25.855l-.006,0A.7.7,0,0,1,16.3,391.65Zm338.8-3.75a.552.552,0,0,1-.5-.3.615.615,0,0,1-.083-.5.542.542,0,0,1,.282-.348q.424-.277.856-.555l.036-.023c.861-.556,1.751-1.131,2.607-1.727,1.461-.9,2.95-1.9,4.35-2.845a2.368,2.368,0,0,0,.266-.171,2.162,2.162,0,0,1,.285-.179.586.586,0,0,1,.31-.084.645.645,0,0,1,.539.284.178.178,0,0,0,.024.071.2.2,0,0,1,.026.079.623.623,0,0,1-.2.7c-1.114.76-2.241,1.476-3.3,2.145-1.493,1.014-3.081,2.049-5.151,3.355A.937.937,0,0,1,355.1,387.9ZM371.8,376.7a.68.68,0,0,1-.5-.245.585.585,0,0,1,.149-.85c2.608-1.883,5.395-3.908,8.1-5.954a.552.552,0,0,1,.345-.119.609.609,0,0,1,.506.273.526.526,0,0,1,.157.426.57.57,0,0,1-.257.419c-2.561,1.937-5.183,3.843-8.1,5.954A.625.625,0,0,1,371.8,376.7ZM7.9,373.45a.59.59,0,0,1-.6-.45c-1.058-2.981-2.067-6.229-3-9.654a.709.709,0,0,1,.45-.745.663.663,0,0,1,.182-.026.643.643,0,0,1,.618.476c.926,3.537,1.875,6.661,2.9,9.55a.584.584,0,0,1,0,.481.577.577,0,0,1-.349.314A.352.352,0,0,1,7.9,373.45ZM387.85,364.6a.682.682,0,0,1-.5-.246.6.6,0,0,1-.119-.438.614.614,0,0,1,.219-.412c2.495-2.037,5.014-4.147,7.7-6.45a.693.693,0,0,1,.9.045.645.645,0,0,1-.1.905c-2.74,2.4-5.259,4.506-7.7,6.445A.636.636,0,0,1,387.85,364.6ZM2.9,354H2.8a.649.649,0,0,1-.65-.495c-.543-3.214-1-6.578-1.35-10a.6.6,0,0,1,.125-.465.659.659,0,0,1,.425-.235.533.533,0,0,1,.083-.006.581.581,0,0,1,.567.551c.3,2.943.734,6.014,1.4,9.956a.634.634,0,0,1-.113.478A.564.564,0,0,1,2.9,354Zm400.15-2.545a.545.545,0,0,1-.45-.2.558.558,0,0,1-.163-.43.58.58,0,0,1,.213-.421c2.745-2.577,5.1-4.85,7.2-6.95a.626.626,0,0,1,.9,0,.506.506,0,0,1,.187.374.627.627,0,0,1-.187.477c-2.1,2.1-4.409,4.327-7.251,6.995A.782.782,0,0,1,403.05,351.45Zm14.2-14.2a.548.548,0,0,1-.4-.155.7.7,0,0,1-.215-.491.553.553,0,0,1,.164-.4c2.494-2.711,4.715-5.251,6.6-7.55a.709.709,0,0,1,.5-.219.552.552,0,0,1,.4.164.621.621,0,0,1,.1.85c-2.111,2.512-4.365,5.071-6.7,7.605A.646.646,0,0,1,417.25,337.25ZM.75,334.05H.7a.65.65,0,0,1-.6-.6l0-.09c-.048-1.789-.1-3.639-.1-5.51,0-1.477,0-3.005.05-4.505a.619.619,0,0,1,.65-.6.619.619,0,0,1,.6.65c-.05,1.5-.05,3-.05,4.455,0,1.883.053,3.823.1,5.534v.01A.658.658,0,0,1,.75,334.05Zm429.45-12.2a.935.935,0,0,1-.4-.1.659.659,0,0,1-.242-.443.615.615,0,0,1,.141-.463c2.155-2.853,4.123-5.579,5.85-8.1a.57.57,0,0,1,.478-.265.675.675,0,0,1,.372.12.47.47,0,0,1,.249.3.684.684,0,0,1-.1.546c-1.666,2.475-3.58,5.141-5.85,8.15A.605.605,0,0,1,430.2,321.85ZM1.25,313.95H1.2a.619.619,0,0,1-.6-.65c.339-3.73.7-7.017,1.1-10.05a.545.545,0,0,1,.536-.525.717.717,0,0,1,.164.02.524.524,0,0,1,.4.188.659.659,0,0,1,.152.517c-.4,2.932-.749,6.092-1.1,9.945A.6.6,0,0,1,1.25,313.95Zm440.2-8.7a.7.7,0,0,1-.3-.045.685.685,0,0,1-.292-.435.612.612,0,0,1,.092-.465c1.79-2.965,3.421-5.892,4.85-8.7a.736.736,0,0,1,.85-.3.647.647,0,0,1,.322.374.617.617,0,0,1-.022.476c-1.553,3-3.219,5.962-4.95,8.8A.565.565,0,0,1,441.45,305.245ZM3.9,294.05H3.75a.707.707,0,0,1-.5-.75c.587-3.185,1.282-6.465,1.954-9.636l.046-.215a.668.668,0,0,1,.654-.511.76.76,0,0,1,.1.006.667.667,0,0,1,.5.755c-.659,2.9-1.294,6.029-2,9.851A.6.6,0,0,1,3.9,294.05Zm446.8-6.6a.6.6,0,0,1-.165-.032.357.357,0,0,0-.085-.019.664.664,0,0,1-.366-.36.633.633,0,0,1,.016-.489c1.42-3.262,2.648-6.391,3.65-9.3a.582.582,0,0,1,.585-.431.786.786,0,0,1,.215.031.622.622,0,0,1,.349.8c-.959,2.833-2.153,5.908-3.649,9.4A.637.637,0,0,1,450.7,287.45ZM8.3,274.445c-.1,0-.149,0-.2-.05a.639.639,0,0,1-.45-.744c.8-3,1.737-6.249,2.8-9.655a.64.64,0,0,1,.59-.471.5.5,0,0,1,.16.026.643.643,0,0,1,.45.8C10.525,267.945,9.625,271.1,8.9,274A.691.691,0,0,1,8.3,274.445ZM457.25,268.5a.183.183,0,0,1-.076-.025.179.179,0,0,0-.074-.025.656.656,0,0,1-.45-.751c.8-2.928,1.712-6.376,2.45-9.754a.663.663,0,0,1,.594-.468.57.57,0,0,1,.156.022.544.544,0,0,1,.37.217.714.714,0,0,1,.13.532c-.729,3.111-1.57,6.391-2.5,9.751A.594.594,0,0,1,457.25,268.5ZM14.1,255.2h-.2a.633.633,0,0,1-.349-.806c1.019-3.053,2.163-6.248,3.4-9.495a.583.583,0,0,1,.577-.383.778.778,0,0,1,.223.033.527.527,0,0,1,.3.272.7.7,0,0,1,.048.528c-1.121,3.023-2.265,6.2-3.4,9.45A.606.606,0,0,1,14.1,255.2Zm447.65-6.3h-.1a.667.667,0,0,1-.5-.755c.684-3.762,1.193-6.907,1.6-9.9a.665.665,0,0,1,.622-.556.476.476,0,0,1,.077.006.709.709,0,0,1,.551.75c-.415,3-.939,6.249-1.6,9.945A.693.693,0,0,1,461.75,248.9ZM21.2,236.4a.448.448,0,0,1-.25-.05.541.541,0,0,1-.305-.282.692.692,0,0,1-.045-.518c1.285-3.186,2.658-6.331,3.95-9.255a.621.621,0,0,1,.558-.4.537.537,0,0,1,.242.058.653.653,0,0,1,.364.351.644.644,0,0,1-.014.5c-1.119,2.525-2.58,5.852-3.95,9.2A.583.583,0,0,1,21.2,236.4ZM464.5,229h-.049a.643.643,0,0,1-.435-.246.6.6,0,0,1-.115-.449c.268-2.941.481-6.212.651-10a.734.734,0,0,1,.65-.6.753.753,0,0,1,.5.29.47.47,0,0,1,.1.356c-.181,4.092-.4,7.191-.7,10.049A.6.6,0,0,1,464.5,229ZM29.3,218a.417.417,0,0,1-.25-.055.639.639,0,0,1-.3-.85c1.211-2.591,2.568-5.38,4.4-9.045a.6.6,0,0,1,.55-.32.676.676,0,0,1,.3.07.643.643,0,0,1,.3.85c-1.392,2.737-2.889,5.765-4.45,9A.539.539,0,0,1,29.3,218Zm436.1-9.049a.652.652,0,0,1-.6-.651c0-3.024-.082-6.295-.249-10a.626.626,0,0,1,1.25-.055c.168,3.711.249,7,.249,10.055A.659.659,0,0,1,465.4,208.95Zm-427.05-8.9a.705.705,0,0,1-.294-.1l-.006,0a.57.57,0,0,1-.29-.33.612.612,0,0,1,.04-.47l.2-.369c1.487-2.782,3.024-5.659,4.653-8.481a.605.605,0,0,1,.552-.318.666.666,0,0,1,.3.069.654.654,0,0,1,.25.85c-1.37,2.376-2.676,4.789-3.94,7.122q-.459.848-.91,1.678A.583.583,0,0,1,38.35,200.05Zm426.2-11.2h-.05a.609.609,0,0,1-.65-.55c-.277-3.048-.653-6.3-1.15-9.955a.629.629,0,0,1,.11-.472.575.575,0,0,1,.39-.223.563.563,0,0,1,.154-.022.573.573,0,0,1,.545.522c.5,3.324.9,6.706,1.2,10.05a.579.579,0,0,1-.131.463A.546.546,0,0,1,464.55,188.85ZM48.2,182.55a.7.7,0,0,1-.3-.1.669.669,0,0,1-.287-.387.568.568,0,0,1,.087-.462c1.71-2.917,3.436-5.733,5.2-8.6a.667.667,0,0,1,.543-.3.485.485,0,0,1,.307.1.592.592,0,0,1,.2.85l0,.006c-1.719,2.8-3.5,5.7-5.2,8.594A.574.574,0,0,1,48.2,182.55Zm413.55-13.6h-.1a.594.594,0,0,1-.6-.5c-.023-.094-.046-.2-.071-.311s-.052-.235-.079-.34c-.674-3.424-1.328-6.417-2-9.149a.6.6,0,0,1,.074-.486.573.573,0,0,1,.376-.265.66.66,0,0,1,.181-.026.56.56,0,0,1,.568.471l.128.546c.722,3.082,1.4,5.989,1.922,8.959h.05a.988.988,0,0,0,.025.174,1,1,0,0,1,.025.176.664.664,0,0,1-.5.75ZM58.85,165.5a.936.936,0,0,1-.35-.1.647.647,0,0,1-.15-.905c1.54-2.39,3.169-4.809,4.745-7.148l.005-.007.013-.02.787-1.169.25-.35a.6.6,0,0,1,.5-.27.56.56,0,0,1,.349.12.651.651,0,0,1,.2.851l-.249.35c-1.847,2.668-3.676,5.437-5.446,8.115l-.007.011-.148.224A.551.551,0,0,1,58.85,165.5ZM457.1,149.4h-.2a.633.633,0,0,1-.6-.45c-.05-.2-.113-.389-.175-.573S456,148,455.95,147.8c-.848-2.843-1.756-5.669-2.7-8.4a.658.658,0,0,1,.4-.8.609.609,0,0,1,.192-.03.624.624,0,0,1,.607.43c.717,2.151,1.557,4.706,2.351,7.35.268.8.506,1.523.7,2.25a.654.654,0,0,1-.4.8Zm-386.7-.9a.6.6,0,0,1-.4-.1.7.7,0,0,1-.244-.406.531.531,0,0,1,.094-.444c1.153-1.655,2.318-3.293,3.445-4.877.775-1.09,1.577-2.216,2.356-3.323a.6.6,0,0,1,.511-.27.7.7,0,0,1,.389.12.629.629,0,0,1,.149.85c-2.043,2.83-3.995,5.587-5.8,8.2A.6.6,0,0,1,70.4,148.5ZM82.05,132.2a.538.538,0,0,1-.35-.15.7.7,0,0,1-.244-.406.531.531,0,0,1,.094-.444c2.059-2.832,4.078-5.557,6-8.1a.723.723,0,0,1,.509-.224.706.706,0,0,1,.391.124.613.613,0,0,1,.219.406.6.6,0,0,1-.119.444c-2.117,2.807-4.119,5.515-5.95,8.051A.71.71,0,0,1,82.05,132.2ZM450.3,130.4a.583.583,0,0,1-.55-.4l-.077-.155-.029-.058-.043-.087a26.446,26.446,0,0,0-1.05-2.5c-.328-.877-.682-1.718-1.05-2.5-.545-1.289-1.139-2.581-1.75-3.9a.557.557,0,0,1-.023-.45.65.65,0,0,1,.322-.35.7.7,0,0,1,.277-.059.64.64,0,0,1,.573.359c.709,1.544,1.629,3.577,2.45,5.6.2.444.4.9.55,1.3.344.785.7,1.6,1,2.35a.179.179,0,0,1,.05.15.61.61,0,0,1-.4.65A.448.448,0,0,1,450.3,130.4ZM94.15,116.15a.538.538,0,0,1-.35-.15.571.571,0,0,1-.254-.4.64.64,0,0,1,.154-.5.5.5,0,0,1,.1-.124.493.493,0,0,0,.1-.126c.679-.865,1.354-1.739,2.006-2.583,1.294-1.675,2.632-3.406,3.994-5.067a.728.728,0,0,1,.513-.224.712.712,0,0,1,.387.119.7.7,0,0,1,.1.905c-1.95,2.414-3.936,4.925-6.25,7.9l-.1.1A.569.569,0,0,1,94.15,116.15Zm347.75-4a.689.689,0,0,1-.55-.3c-.375-.753-.775-1.506-1.162-2.234l-.026-.049c-.17-.319-.345-.649-.512-.967q-.365-.66-.723-1.313c-.807-1.467-1.569-2.853-2.376-4.237a.571.571,0,0,1-.094-.436.659.659,0,0,1,.294-.413.666.666,0,0,1,.3-.069.6.6,0,0,1,.552.318c1.133,1.889,2.115,3.623,3,5.3.437.774.841,1.529,1.27,2.328.182.34.408.762.63,1.172a.614.614,0,0,1,.022.47.647.647,0,0,1-.323.376A.586.586,0,0,1,441.9,112.15Zm-335.15-11.7a.561.561,0,0,1-.4-.15.524.524,0,0,1-.228-.34.758.758,0,0,1,.128-.56c2-2.421,4.061-4.814,6.051-7.128l.449-.522a.724.724,0,0,1,.509-.223.707.707,0,0,1,.391.123.682.682,0,0,1,.049.9l-.449.521c-1.992,2.316-4.051,4.71-6.051,7.129A.592.592,0,0,1,106.75,100.45ZM431.8,94.8a.618.618,0,0,1-.5-.249c-1.842-2.867-3.828-5.659-5.7-8.25a.689.689,0,0,1,.15-.9.7.7,0,0,1,.389-.12.6.6,0,0,1,.511.27c2.324,3.277,4.066,5.837,5.649,8.3a.673.673,0,0,1,.1.537.629.629,0,0,1-.6.413ZM119.85,85.2a.566.566,0,0,1-.4-.15.635.635,0,0,1-.049-.9c2.212-2.458,4.5-5,6.8-7.4a.546.546,0,0,1,.433-.194.68.68,0,0,1,.418.144.633.633,0,0,1,.049.9c-2.31,2.465-4.6,4.954-6.8,7.4A.544.544,0,0,1,119.85,85.2Zm300.2-6.65a.684.684,0,0,1-.5-.25c-1.86-2.359-3.954-4.862-6.4-7.65a.6.6,0,0,1-.181-.454.617.617,0,0,1,.231-.446.68.68,0,0,1,.417-.144.547.547,0,0,1,.433.195c2.421,2.751,4.547,5.286,6.5,7.75a.6.6,0,0,1,.119.443.616.616,0,0,1-.218.406A.666.666,0,0,1,420.05,78.55Zm-286.45-8a.487.487,0,0,1-.45-.2.509.509,0,0,1-.186-.373.64.64,0,0,1,.186-.482c2.775-2.827,5.047-5.082,7.15-7.1a.576.576,0,0,1,.85,0,.633.633,0,0,1,0,.9c-2.108,2.019-4.43,4.325-7.1,7.051A.616.616,0,0,1,133.6,70.55ZM406.8,63.5a.639.639,0,0,1-.45-.2c-1.954-2-4.533-4.6-7.15-7a.683.683,0,0,1-.05-.9.633.633,0,0,1,.9,0c2.606,2.394,5.1,4.907,7.2,7.05a.537.537,0,0,1,.144.381.668.668,0,0,1-.194.469A.45.45,0,0,1,406.8,63.5ZM148.05,56.6a.9.9,0,0,1-.5-.2.687.687,0,0,1,.05-.9,7.442,7.442,0,0,1,.662-.568l0,0h0c.1-.079.193-.153.284-.229a13.509,13.509,0,0,1,1.249-1.15c1.75-1.6,3.578-3.174,5.347-4.7a.564.564,0,0,1,.405-.167.716.716,0,0,1,.5.214.7.7,0,0,1-.1.9l-.33.281c-1.218,1.037-2.478,2.11-3.72,3.219l-1.8,1.651-.568.516-1.082.983A.565.565,0,0,1,148.05,56.6Zm244.1-6.8a.564.564,0,0,1-.4-.149c-2.312-1.949-5.047-4.222-7.8-6.305a.675.675,0,0,1-.1-.895.623.623,0,0,1,.494-.224.728.728,0,0,1,.406.124c2.68,2.112,5.293,4.187,7.8,6.349a.579.579,0,0,1,.213.421.557.557,0,0,1-.164.43A.6.6,0,0,1,392.15,49.8ZM163.3,43.55a.705.705,0,0,1-.5-.25.691.691,0,0,1,.1-.9l1.218-.949.126-.1c2.287-1.784,4.446-3.469,6.656-5.053a.49.49,0,0,1,.353-.144.654.654,0,0,1,.5.244.68.68,0,0,1-.1.9c-2.509,1.8-5.109,3.8-7.95,6.1A.666.666,0,0,1,163.3,43.55ZM376.25,37.5a.477.477,0,0,1-.35-.1c-2.541-1.756-5.273-3.572-8.35-5.55a.555.555,0,0,1-.284-.356A.611.611,0,0,1,367.35,31a.643.643,0,0,1,.539-.281.605.605,0,0,1,.311.082c3.088,1.95,5.836,3.782,8.4,5.6a.585.585,0,0,1,.15.851A.5.5,0,0,1,376.25,37.5Zm-196.8-5.9a.617.617,0,0,1-.5-.25.64.64,0,0,1,.15-.9c2.438-1.654,5.139-3.386,8.5-5.45a.535.535,0,0,1,.276-.071.759.759,0,0,1,.575.271.7.7,0,0,1-.2.9c-2.8,1.672-5.568,3.439-8.45,5.4A.717.717,0,0,1,179.45,31.6Zm179.8-4.8a.37.37,0,0,1-.3-.1c-2.528-1.439-5.242-2.89-8.8-4.705a.634.634,0,0,1,.3-1.207.58.58,0,0,1,.254.057c3.09,1.576,6.233,3.314,8.9,4.805a.554.554,0,0,1,.284.355.61.61,0,0,1-.084.494A.573.573,0,0,1,359.25,26.8ZM196.6,21.15a.583.583,0,0,1-.55-.35.656.656,0,0,1,.25-.85c2.879-1.567,5.891-3.1,8.95-4.55a.781.781,0,0,1,.309-.068.572.572,0,0,1,.541.367.556.556,0,0,1,.029.428.653.653,0,0,1-.329.372c-2.824,1.388-5.856,2.9-8.9,4.55l0,0A.706.706,0,0,1,196.6,21.15ZM341.35,17.7a.448.448,0,0,1-.25-.05c-2.505-1.127-5.815-2.589-9.2-3.9a.667.667,0,0,1-.366-.361.646.646,0,0,1,.619-.871.625.625,0,0,1,.2.031c3.232,1.3,6.49,2.728,9.25,3.95a.625.625,0,0,1,.349.85A.694.694,0,0,1,341.35,17.7ZM214.7,12.5a.638.638,0,0,1-.551-.4.524.524,0,0,1-.025-.42.663.663,0,0,1,.375-.375c3.333-1.344,6.512-2.521,9.45-3.5a.6.6,0,0,1,.188-.03.576.576,0,0,1,.563.43.492.492,0,0,1,.01.413.6.6,0,0,1-.36.336c-2.8.933-5.874,2.078-9.4,3.5A.372.372,0,0,1,214.7,12.5Zm108-2.25h-.2c-2.876-1-6-1.985-9.55-3a.671.671,0,0,1-.409-.327A.54.54,0,0,1,312.5,6.5a.642.642,0,0,1,.618-.476.664.664,0,0,1,.182.026c3.186.9,6.416,1.906,9.6,3a.614.614,0,0,1,.4.8A.648.648,0,0,1,322.7,10.25ZM233.9,6.1h-.15a.6.6,0,0,1-.6-.45.618.618,0,0,1,.068-.507A.54.54,0,0,1,233.6,4.9c3.006-.846,6.211-1.6,9.8-2.3a.637.637,0,0,1,.09-.006.721.721,0,0,1,.66.506.677.677,0,0,1-.5.751c-3.356.666-6.637,1.423-9.75,2.25Zm69.45-1.25a.157.157,0,0,1-.1-.05c-3.242-.687-6.556-1.293-9.85-1.8a.636.636,0,0,1-.419-.254.673.673,0,0,1-.131-.5.677.677,0,0,1,.66-.507.639.639,0,0,1,.09.006c2.9.446,6.133,1.051,9.9,1.85a.665.665,0,0,1,.5.75A.692.692,0,0,1,303.35,4.85ZM253.5,2.3h-.05a.648.648,0,0,1-.65-.551.6.6,0,0,1,.113-.447.654.654,0,0,1,.437-.252c3.233-.392,6.615-.7,10.05-.9h.049a.647.647,0,0,1,.6.595.567.567,0,0,1-.14.456.559.559,0,0,1-.41.2C260.127,1.6,256.762,1.9,253.5,2.3Zm30-.5h-.05c-3.558-.323-6.829-.5-10-.55a.619.619,0,0,1-.6-.65.62.62,0,0,1,.65-.6c3.178.048,6.559.233,10.05.55a.619.619,0,0,1,.6.65A.655.655,0,0,1,283.5,1.8Z" transform="translate(34.016 0.002)" fill="#d8d5db"/>
  <path id="Fill_8" data-name="Fill 8" d="M96.5,167.15h0l-12.854-22.3L47.9,82.95l-5.5-9.5-9.4-16.3L0,0H193.05l-.7,1.2-.4.651-4.5,7.85L171.145,37.9l-2.1,3.6L109.4,144.85l-12.9,22.3ZM4.3,2.5,32.995,52.2,45.25,73.45l5.5,9.5,35.75,61.9,10,17.3,10-17.3,60.3-104.4,2.046-3.6L178.25,20.6l.85-1.45,6.5-11.3,3.1-5.35Z" transform="translate(311.717 127.201)" fill="#fff"/>
  <path id="Fill_10" data-name="Fill 10" d="M304.71,331.8a3.548,3.548,0,0,1-.65,2.35c-1.25,2.35-4.245,5.7-7.4,8.45-.655.555-1.3,1.1-1.955,1.55a17.51,17.51,0,0,1-5.2,3.2c-5.1,1.7-27.15-1.2-32.5-4.1a3.932,3.932,0,0,1-.85-.65,82.577,82.577,0,0,1-9.4,0c-1.8-.1-3.75-.25-5.85-.55a86.673,86.673,0,0,1-16.7-3.65,81.856,81.856,0,0,1-9.35-3.45,100.175,100.175,0,0,1-9.2-4.7c-.75-.4-1.3-.9-1.95-1.3.6,4.6,1.2,9.145,1.85,13.645.2,1.25.4,2.5.55,3.7.55,3.55,1.1,7.055,1.7,10.5a370.094,370.094,0,0,0,8.3,37.7c.3,1.2.65,2.4,1,3.55-1.05.15-2.1.305-3.1.45.25,1.15.45,2.355.65,3.55,2.5,13.5,4.4,30.15,5.8,47.25-58.7,23.25-113.35,28.7-151.05,5.65A90.158,90.158,0,0,1,39.01,424l-3.9-6.45c.25-7.05.55-13,.8-17.05-.95-.1-1.45-.1-1.45-.1,0-8.15.35-18.85.9-31.2.05-.5.05-1,.05-1.55.2-3.5.4-7.1.65-10.85.2-4.6.5-9.295.8-14.2.45-7.1.95-14.5,1.5-22-12.2-3.25-22.4-6.75-28.15-10.25C2.71,305.8-.14,299.45.06,293.2a13.7,13.7,0,0,1,.2-4c2.85-9.45,12.65-37.6,23.75-65.55l-12.3-4.2S47.66,155.4,68.76,141.3c.1-.05.15-.1.25-.15,7.45-6.9,18.2-11.35,34.3-13.15.1-13.35-.95-35.9-2.05-53.15-5.25-1.2-8.8-5.55-10.8-9.15a9.3,9.3,0,0,1-.65-1.15,21.835,21.835,0,0,1-1.45-3.5c-1.1-4.4-.05-8.05,2.1-10.4C90.01,47,89.36,41,89.11,34.7c-.5-11.6.15-24.3,5.4-25.45a2.174,2.174,0,0,0-.2-.35C92.96,4.75,95.41.15,95.51,0l2.2,1.15c0,.05-2,3.85-1.05,6.95,4.2-4.65,18.35-6.15,33.2-5.3.85,0,1.75.1,2.6.15,3.05.25,6.1.55,9.1,1a26.978,26.978,0,0,1,2.9.45c.5.05,1.05.15,1.55.25a89.464,89.464,0,0,1,9.2,2.05,38.851,38.851,0,0,1,11.75,5,12.054,12.054,0,0,1,2.2,1.9c2.5,2.9,2.9,4.95,1.8,6.3a6.3,6.3,0,0,1-3.1,1.7,98.507,98.507,0,0,1,.95,11.2c.3.8.6,1.65.9,2.5.25.75.5,1.55.75,2.35.05.05.1.05.15.1.3.25.6.45.9.7a11.773,11.773,0,0,1,2.85,3.9l-2.25,1.05c-.05-.1-.1-.15-.15-.25.6,2.55,1.15,5.2,1.55,8,.6,4.15,1.25,8.3,1.9,12.35.2,1.55.4,3.1.6,4.6.45,3.1.85,6.15,1.1,9.05a23.653,23.653,0,0,1,.2,2.6c1.05,13.2-.2,24.15-8.1,29.65a17.2,17.2,0,0,1-5.35,2.6,31.5,31.5,0,0,1-9.3,1.35c.1,3.5.3,6.9.6,10.1.15,1.25.3,2.5.5,3.65.15,1.2.35,2.4.6,3.5,13.35,3.2,23.4,8.6,29.75,15.95.3.3.65.6.95.95,3.55,3.45,7,8.755,10.25,15.1a223.794,223.794,0,0,1,11.35,27.25c.25.75.5,1.55.8,2.3.25.85.55,1.65.8,2.5,1.4,4.15,2.7,8.3,3.9,12.255.9,2.945,1.7,5.8,2.5,8.495,3.85,13.555,6.1,23.555,6.1,23.555l-6.1,1.445-2.5.6-1.8.455c.6,2.4,1.2,4.745,1.8,7.145.05.25.15.55.2.8.8,3.1,1.55,6.25,2.3,9.3,3.85,15.65,7.1,30.15,8.55,39.75,4.3,3.55,7.45,9.1,12.1,14.255,4.7,5.2,11.05,9.9,21.8,11.745.05,0,.05.05.1.05a62.876,62.876,0,0,1,16.75-8.645c.65-.155,1.205-.305,1.7-.4a4.441,4.441,0,0,1,1.05-.15c2.005-.4,2.3-.25,3.5.5a16.6,16.6,0,0,0,2,1.35c3.9,2.3,8,4.45,11.55,6.55,4.4,2.555,7.85,5,8.85,7.6a2.174,2.174,0,0,1,.2.5" transform="translate(38.105 50.299)" fill="#d1cdd3"/>
  <path id="Fill_12" data-name="Fill 12" d="M124.51,135.84c-3.565-2.135-2.525-2.4-6.555-1.665-4.35.8-13.71,5.295-18.445,9.035a1.382,1.382,0,0,1-.135-.04c-21.44-3.675-25.21-18.84-33.88-26.02C60.69,85.67,36.48,0,36.48,0L0,13.565C5.315,49.66,26.7,118.31,32.255,133.8a15.12,15.12,0,0,0,3.4,4.575c1.82,3.845,5.09,7.555,10.375,10.61A91.558,91.558,0,0,0,96.52,161.3a3.982,3.982,0,0,0,.875.66c5.365,2.93,27.375,5.8,32.515,4.115,5.225-1.715,15.925-12.545,15.155-15.545-1.25-4.9-11.62-9.34-20.555-14.69" transform="translate(233.158 231.587)" fill="#ffad69"/>
  <path id="Fill_14" data-name="Fill 14" d="M7.194,15.265C-3.106,38.415.679,111.77.679,111.77L66.5,96.08S34.354-45.8,7.194,15.265" transform="translate(229.71 193.182)" fill="#377adb"/>
  <path id="Fill_16" data-name="Fill 16" d="M185.1,40.25c-11.4,5.705-22.8,10.8-34.05,15.2C92.35,78.7,37.705,84.15,0,61.1.55,39.45,1.3,16.9,1.9,6.65c.1-1.2.2-2.25.25-3.1l20.2-.4h.9l.05-.05L132.6.955h.1L139.7.8l7-.15L179,0c.355,1.5.7,3.1,1,4.7,2.1,10.2,3.75,22.445,5.1,35.545" transform="translate(107.515 444.149)" fill="#232323"/>
  <path id="Fill_18" data-name="Fill 18" d="M80.545.123C41.275,1.418,28,14.673,21.23,37.6,13.54,63.628,0,220.848,0,273.383c0,0,117.525,8.33,182.63-2.345C162.215,202.083,160.01,78.1,159.6,41.163c-.305-27.71-29.275-42.685-79.055-41.04" transform="translate(108.005 177.306)" fill="#4d8dff"/>
  <path id="Clip_21-2" data-name="Clip 21" d="M0,520.035H532.615V0H0Z" fill="none"/>
  <g id="Mask_Group_1" data-name="Mask Group 1" clip-path="url(#clip-path-2)">
    <path id="Fill_20" data-name="Fill 20" d="M62.2,74.351H0V0H62.2V74.35ZM2.5,2.5V71.85H59.7V2.5Z" transform="translate(192.465 242.45)" fill="#fff"/>
    <path id="Fill_22" data-name="Fill 22" d="M13.542,49.462c3.865-2.915,24.045-.27,18.235-41.355-2.12-14.99-16.195-4.985-26.16-2.985S1.987,50.2,1.987,50.2Z" transform="translate(209.603 63.677)" fill="#232323"/>
    <path id="Fill_23" data-name="Fill 23" d="M0,0C1.675,10.89,5.025,69.805,3.63,83.49S68.415,101.08,59.755,86s-2.51-65.065-2.51-65.065Z" transform="translate(172.9 103.298)" fill="#ffad69"/>
    <path id="Fill_24" data-name="Fill 24" d="M.021,0,52.676,19.28s-3.555,29.11-1.41,49.61C11.116,65.785.811,15.075.136,5.31.021,3.47-.034,1.7.021,0" transform="translate(177.459 104.963)" fill="#d88344"/>
    <path id="Fill_25" data-name="Fill 25" d="M74.6,47.535c4.88,33.635,13.165,67.175-27.6,61.65S-.113,51.39,0,41.535c.635-52.615,65-60.14,74.595,6" transform="translate(172.444 53.908)" fill="#ffad69"/>
    <path id="Fill_26" data-name="Fill 26" d="M80.2,13.61C70.6,2.465,16.656-1.74,7.726,8.13c-.98-3.1,1.02-6.91,1.04-6.945L6.566,0c-.105.19-2.54,4.785-1.215,8.915.045.13.155.22.2.35-9.87,2.175-3.57,45.055-3.57,45.055l11.555-.74c3.865-2.91,17.28-23.4,20.235-35.765C54.9,21.39,92.391,27.775,80.2,13.61" transform="translate(162.497 50.277)" fill="#232323"/>
    <path id="Fill_27" data-name="Fill 27" d="M163.425,144.75c-4.13.23-20.155,3.015-25.78,1.71-18.9-4.415-67.625-26.27-93.85-38.485C59.93,72.95,83.68,10.96,83.68,10.96L46.335,0C29,32.1,5.07,99.91.25,115.645a15.484,15.484,0,0,0-.205,4.005c-.17,6.225,2.68,12.58,10.165,17.14,20.76,12.645,99.075,24.915,120.765,27.31a4.464,4.464,0,0,0,1.79,2.03c5.305,2.98,29.445,5.21,34.41,6.09,6.225,1.1,25.12,2.7,24.3.17-1.335-4.145-8.34-28.745-28.055-27.64" transform="translate(73.531 223.863)" fill="#ffad69"/>
    <path id="Fill_28" data-name="Fill 28" d="M57.025,6.38C35.96,20.46,0,84.5,0,84.5L64.035,106.38s48.56-137.14-7.01-100" transform="translate(85.256 185.239)" fill="#4d8dff"/>
    <path id="Fill_29" data-name="Fill 29" d="M.277,2.8c-.13,1.64.755,3.045,1.98,3.145s2.33-1.15,2.465-2.79S3.967.105,2.737.005.407,1.155.277,2.8" transform="translate(212.433 96.985)" fill="#232323"/>
    <path id="Fill_30" data-name="Fill 30" d="M.278,2.8c-.13,1.64.755,3.045,1.98,3.145s2.33-1.15,2.465-2.79S3.963.105,2.738.005.408,1.155.278,2.8" transform="translate(238.404 97.673)" fill="#232323"/>
    <path id="Fill_31" data-name="Fill 31" d="M2.1,6.7,0,5.336A11.814,11.814,0,0,1,12.16.206l-.545,2.44A9.33,9.33,0,0,0,2.1,6.7" transform="translate(204.226 83.875)" fill="#232323"/>
    <path id="Fill_32" data-name="Fill 32" d="M8.995,7.922A9.307,9.307,0,0,0,.175,2.507L0,.012A11.809,11.809,0,0,1,11.265,6.877Z" transform="translate(236.642 85.771)" fill="#232323"/>
    <path id="Fill_33" data-name="Fill 33" d="M17.4,10.88A19.691,19.691,0,0,1,0,1.29L2.14,0C8.255,10.17,19.225,8.315,19.69,8.23l.455,2.455a16.518,16.518,0,0,1-2.75.195" transform="translate(203.66 119.867)" fill="#232323"/>
    <path id="Fill_34" data-name="Fill 34" d="M12.14,21.685,0,21.52l.035-2.5,8.755.12L3.385.7,5.78,0Z" transform="translate(228.139 97.67)" fill="#d88344"/>
    <path id="Fill_35" data-name="Fill 35" d="M21.336,9.642c3.68,8.3,8.3,16.33-3.27,17.82S1.121,15.972.466,13.427c-3.5-13.575,13.625-20.1,20.87-3.785" transform="translate(161.452 97.935)" fill="#ffad69"/>
    <path id="Fill_36" data-name="Fill 36" d="M485.54,14.2H7.1A7.1,7.1,0,0,1,7.1,0H485.54a7.1,7.1,0,1,1,0,14.2" transform="translate(10.351 392.884)" fill="#fff"/>
    <path id="Fill_37" data-name="Fill 37" d="M187.71,14.2H7.1A7.1,7.1,0,0,1,7.1,0H187.71a7.1,7.1,0,0,1,0,14.2" transform="translate(6.801 392.884)" fill="#d8d5db"/>
    <path id="Fill_38" data-name="Fill 38" d="M156.975,109.545H8.565c-5.665,0-9.425-4.6-8.395-10.27L16.355,10.27A12.873,12.873,0,0,1,28.495,0H176.9c5.67,0,9.43,4.595,8.4,10.27L169.115,99.275a12.879,12.879,0,0,1-12.14,10.27" transform="translate(315.489 272.066)" fill="#2b2b2b"/>
    <path id="Fill_39" data-name="Fill 39" d="M156.975,109.545H8.565c-5.665,0-9.425-4.6-8.395-10.27L16.355,10.27A12.868,12.868,0,0,1,28.49,0h148.4c5.675,0,9.435,4.595,8.4,10.27L169.11,99.275a12.873,12.873,0,0,1-12.135,10.27" transform="translate(319.117 272.066)" fill="#232323"/>
    <path id="Fill_40" data-name="Fill 40" d="M41,41H0L7.45,0H48.5L41,41ZM9.55,2.5,3.005,38.495H38.95L45.5,2.5Z" transform="translate(387.615 306.353)" fill="#fff"/>
    <path id="Fill_41" data-name="Fill 41" d="M0,0A8.458,8.458,0,0,0,8.435,8.43H163.68A8.458,8.458,0,0,0,172.115,0Z" transform="translate(298.025 384.457)" fill="#232323"/>
    <path id="Fill_42" data-name="Fill 42" d="M0,0A8.453,8.453,0,0,0,8.43,8.43H69.48A8.458,8.458,0,0,0,77.915,0Z" transform="translate(252.923 384.457)" fill="#2b2b2b"/>
    <path id="Fill_43" data-name="Fill 43" d="M9.515,0A9.519,9.519,0,0,0,0,9.52H19.035A9.52,9.52,0,0,0,9.515,0" transform="translate(413.935 108.227)" fill="#377adb"/>
    <path id="Fill_44" data-name="Fill 44" d="M78.74,0V92.43a9.5,9.5,0,0,1-9.535,9.49H0V9.54A9.526,9.526,0,0,1,9.495,0Z" transform="translate(344.72 108.229)" fill="#4d8dff"/>
    <path id="Fill_45" data-name="Fill 45" d="M69.24.01,0,0A9.52,9.52,0,0,0,9.525,9.515L78.73,9.5A9.463,9.463,0,0,1,69.24.01" transform="translate(335.191 200.649)" fill="#6ea9ff"/>
    <path id="Fill_46" data-name="Fill 46" d="M0,3.75H58.05V1.25H0Z" transform="translate(355.07 120)" fill="#fff"/>
    <path id="Fill_47" data-name="Fill 47" d="M0,3.75H58.05V1.25H0Z" transform="translate(355.07 129.47)" fill="#fff"/>
    <path id="Fill_48" data-name="Fill 48" d="M0,3.75H58.05V1.25H0Z" transform="translate(355.07 138.94)" fill="#fff"/>
    <path id="Fill_49" data-name="Fill 49" d="M0,3.75H58.05V1.25H0Z" transform="translate(355.07 148.41)" fill="#fff"/>
    <path id="Fill_50" data-name="Fill 50" d="M0,3.75H58.05V1.25H0Z" transform="translate(355.07 157.88)" fill="#fff"/>
    <path id="Fill_51" data-name="Fill 51" d="M0,3.75H58.05V1.25H0Z" transform="translate(355.07 167.35)" fill="#fff"/>
    <path id="Fill_52" data-name="Fill 52" d="M0,3.75H58.05V1.25H0Z" transform="translate(355.07 176.82)" fill="#fff"/>
    <path id="Fill_53" data-name="Fill 53" d="M0,3.75H58.05V1.25H0Z" transform="translate(355.07 186.29)" fill="#fff"/>
    <path id="Fill_54" data-name="Fill 54" d="M57.932,57.936a33.938,33.938,0,1,1,0-47.995,33.944,33.944,0,0,1,0,47.995" transform="translate(462.25 99.956)" fill="#ffc84d"/>
    <path id="Fill_55" data-name="Fill 55" d="M37.995,0,64.96,26.965a38.318,38.318,0,0,1-53.935,0A38.179,38.179,0,0,1,0,3.325Z" transform="translate(458.194 133.896)" fill="#232323"/>
    <path id="Fill_56" data-name="Fill 56" d="M38.137,20.255.257,24.67A38.168,38.168,0,0,1,5.822,0Z" transform="translate(458.052 113.641)" fill="#fff"/>
    <path id="Fill_57" data-name="Fill 57" d="M35.5,42.245H6.75A6.77,6.77,0,0,1,0,35.495V6.75A6.773,6.773,0,0,1,6.75,0H35.5a6.773,6.773,0,0,1,6.75,6.75V35.495a6.77,6.77,0,0,1-6.75,6.75" transform="translate(294.571 42.555)" fill="#232323"/>
    <path id="Fill_58" data-name="Fill 58" d="M35.5,42.245H6.75A6.77,6.77,0,0,1,0,35.495V6.75A6.773,6.773,0,0,1,6.75,0H35.5a6.773,6.773,0,0,1,6.75,6.75V35.495a6.77,6.77,0,0,1-6.75,6.75" transform="translate(286.168 50.958)" fill="#ff4e4a"/>
  </g>
</svg>
