<svg xmlns="http://www.w3.org/2000/svg" xmlns:xlink="http://www.w3.org/1999/xlink" width="604.354" height="494.83" viewBox="0 0 604.354 494.83">
  <defs>
    <clipPath id="clip-path">
      <path id="Clip_82" data-name="Clip 82" d="M0,0H169.886V83.235H0Z" transform="translate(1.157 0.947)" fill="none"/>
    </clipPath>
  </defs>
  <g id="Image" transform="translate(0 -0.001)">
    <path id="Oval" d="M-189.648,436.954C-312.906,424.421-414.927,334.113-459.63,219S-336.026,5.828-214.8.21,0,102.3,0,224.974-66.389,449.487-189.648,436.954Z" transform="translate(520 29)" fill="#ffe5d2"/>
    <g id="image-2" data-name="image">
      <path id="Fill_1" data-name="Fill 1" d="M.924,0c.1-.059.729.771,1.658,2.405A42.281,42.281,0,0,1,5.756,9.7c2.212,6.361,3.6,15.751,2.777,25.991A130.453,130.453,0,0,1,3.524,61.316C1.656,67.716.281,71.6.044,71.536c-.262-.072.666-4.092,2.2-10.555A169.961,169.961,0,0,0,6.666,35.55,73.707,73.707,0,0,0,4.492,10.089C2.709,3.749.63.156.924,0" transform="translate(481.077 343.691)" fill="#fff"/>
      <path id="Fill_3" data-name="Fill 3" d="M.016,0C.133-.05.894,1.341,2.162,3.907s3.048,6.3,5.155,10.971A250.379,250.379,0,0,1,21.2,52.436a142.768,142.768,0,0,1,4.065,21.733,107.548,107.548,0,0,1,.42,18.058,81.779,81.779,0,0,1-1.611,12.062,18.057,18.057,0,0,1-1.217,4.3c-.346-.067,1.181-6.249,1.506-16.42.4-10.15-.929-24.252-4.972-39.247S9.963,24.849,6.1,15.4C4.157,10.675,2.585,6.849,1.5,4.2.433,1.548-.1.055.016,0" transform="translate(488.294 292.448)" fill="#fff"/>
      <path id="Fill_5" data-name="Fill 5" d="M16.218.009c.217.233-1.906,2.258-4.661,6.017C10.873,6.971,10.13,8,9.435,9.184c-.76,1.136-1.421,2.44-2.157,3.787A56.975,56.975,0,0,0,3.61,22.23a56.959,56.959,0,0,0-1.818,9.792c-.091,1.53-.225,2.987-.187,4.352-.038,1.369.041,2.641.117,3.8.334,4.648,1.056,7.492.748,7.575-.187.064-1.375-2.683-2.064-7.44a33.154,33.154,0,0,1-.353-3.907A44.258,44.258,0,0,1,.071,31.9a50.338,50.338,0,0,1,1.74-10.183,50.2,50.2,0,0,1,3.943-9.549,43.219,43.219,0,0,1,2.383-3.83,32.858,32.858,0,0,1,2.376-3.122c3.114-3.661,5.581-5.354,5.7-5.2" transform="translate(238.615 352.585)" fill="#fff"/>
      <path id="Fill_7" data-name="Fill 7" d="M9.921.038c.157.251-1.026,1.156-2.571,2.886A23.328,23.328,0,0,0,4.933,6.17a25.19,25.19,0,0,0-2.105,4.454A25,25,0,0,0,1.74,15.43a23.144,23.144,0,0,0-.1,4.046c.15,2.314.525,3.757.245,3.858C1.687,23.418.845,22.1.33,19.652A17.357,17.357,0,0,1,.02,15.285a20.9,20.9,0,0,1,1.037-5.271,20.923,20.923,0,0,1,2.434-4.79A17.286,17.286,0,0,1,6.425,1.977C8.338.366,9.815-.154,9.921.038" transform="translate(249.895 368.963)" fill="#fff"/>
      <path id="Fill_9" data-name="Fill 9" d="M.015.006c.1-.084.935.74,2.372,2.312A36.079,36.079,0,0,1,4.893,5.285c.922,1.2,2.032,2.528,3.073,4.126q.805,1.183,1.687,2.476c.58.867,1.106,1.815,1.692,2.773,1.2,1.9,2.274,4.05,3.443,6.29a103.212,103.212,0,0,1,6,15.293,103.332,103.332,0,0,1,3.277,16.1c.236,2.517.5,4.9.527,7.151.029,1.123.1,2.2.086,3.249s-.048,2.04-.069,2.994c-.005,1.91-.214,3.627-.337,5.136a36.1,36.1,0,0,1-.492,3.849c-.352,2.1-.606,3.25-.734,3.232-.33-.044.292-4.7.24-12.231q-.027-1.412-.052-2.953c-.022-1.026-.131-2.092-.192-3.194-.093-2.209-.412-4.551-.688-7.019a115.246,115.246,0,0,0-3.362-15.781A115.26,115.26,0,0,0,13.236,21.7c-1.108-2.221-2.115-4.36-3.236-6.265-.549-.959-1.037-1.912-1.575-2.785s-1.064-1.707-1.562-2.506C2.815,3.794-.24.223.015.006" transform="translate(190.63 216.102)" fill="#fff"/>
      <path id="Fill_11" data-name="Fill 11" d="M.02.007C.18-.135,2.33,1.877,5.065,5.753A55.509,55.509,0,0,1,9.3,12.919a64.093,64.093,0,0,1,3.723,9.5,64.151,64.151,0,0,1,2.04,10,55.5,55.5,0,0,1,.335,8.319c-.189,4.739-.9,7.6-1.112,7.564-.3-.037-.06-2.93-.213-7.565a74.187,74.187,0,0,0-.721-8.093,77.512,77.512,0,0,0-2.124-9.7,77.379,77.379,0,0,0-3.486-9.295A74.272,74.272,0,0,0,3.953,6.473C1.561,2.5-.211.2.02.007" transform="translate(211.824 224.872)" fill="#fff"/>
      <path id="Fill_13" data-name="Fill 13" d="M47,3.328,45.37,0,0,34.665,19.793,66.731,64.956,28.652Z" transform="translate(90.612 374.749)" fill="#ff7b5b"/>
      <path id="Fill_15" data-name="Fill 15" d="M0,0,17.388,30.071l1.112-.5L3.015,1.458Z" transform="translate(92.513 410.155)" fill="#d7d4d4"/>
      <path id="Fill_17" data-name="Fill 17" d="M44.2,0,0,32.737a1.975,1.975,0,0,0,1.282,1.136,3.557,3.557,0,0,0,1.733.323L49.486,2.391a14.024,14.024,0,0,1-3.65-1.348A10.962,10.962,0,0,0,44.2,0" transform="translate(92.513 377.418)" fill="#f5f3f3"/>
      <path id="Fill_19" data-name="Fill 19" d="M48.437,0,0,32.353,15.731,62.168,18.266,66.3,66.7,30.447s-5.1-7.614-8.165-12.212S49.463,2.795,49.136,2.1a16.565,16.565,0,0,1-.7-2.1" transform="translate(94.698 378.526)" fill="#ff7b5b"/>
      <path id="Fill_21" data-name="Fill 21" d="M15.079,2.795,16.447,0l38.1,29.11L37.924,56.037,0,24.06Z" transform="translate(527.501 152.371)" fill="#775298"/>
      <path id="Fill_23" data-name="Fill 23" d="M15.535,0,.935,25.251,0,24.835,13,1.225Z" transform="translate(564.915 182.103)" fill="#d7d4d4"/>
      <path id="Fill_25" data-name="Fill 25" d="M4.438,0,41.556,27.491a1.662,1.662,0,0,1-1.076.954,2.992,2.992,0,0,1-1.457.271L0,2.009A11.726,11.726,0,0,0,3.066.876,9.189,9.189,0,0,1,4.438,0" transform="translate(538.895 154.612)" fill="#f5f3f3"/>
      <path id="Fill_27" data-name="Fill 27" d="M15.34,0,56.014,27.167,42.805,52.2l-2.128,3.467L0,25.566s4.285-6.395,6.857-10.255,7.622-12.965,7.9-13.549A13.93,13.93,0,0,0,15.34,0" transform="translate(522.601 155.544)" fill="#775298"/>
      <path id="Fill_29" data-name="Fill 29" d="M1.841,0A4.362,4.362,0,0,0,.4,5.31C1.841,8.63,8.147,18.476,16.667,18.144,17.015,18.131,5.935,0,5.935,0Z" transform="translate(81.604 102.772)" fill="#ff7b5b"/>
      <path id="Fill_31" data-name="Fill 31" d="M41.175,8.016S30.522-1.5,27.111.2C22.944,2.288-.905,25.656.027,36.665c.383,4.509,5.632.646,14.985-9.056a20.924,20.924,0,0,1,21.135-5.543Z" transform="translate(29.238 276.277)" fill="#775298"/>
      <path id="Fill_33" data-name="Fill 33" d="M41.54,7.715,28.679,0S-4.656,31.252.552,35.419c3.95,3.16,6.272.326,15.626-9.376s21.2-4.122,21.2-4.122Z" transform="translate(54.756 292.628)" fill="#775298"/>
      <path id="Fill_35" data-name="Fill 35" d="M51.123,0l2.412,34.246L0,20.3Z" transform="translate(123.731 197.526)" fill="#f3a683"/>
      <path id="Fill_37" data-name="Fill 37" d="M6.9,0S53.724,2.951,59.959.871c0,0,9.151,89.9-7.132,99.6S0,95.969,0,95.969l9.867-19.4L31.14,75.182V40.537l-1.526.346Z" transform="translate(116.835 219.003)" fill="#112129"/>
      <path id="Fill_39" data-name="Fill 39" d="M8.726,61.324S-3.052,66.175.759,77.955c0,0,40.207,31.527,59.771,24.251C71.491,98.13,83.265,67.032,91.5,40.464L120.489.871s-13.671.684-18.232.666C93.541,1.5,67.426,0,67.426,0s-13.641,71.372-18.5,73.1-40.2-11.78-40.2-11.78" transform="translate(56.306 219.003)" fill="#22343d"/>
      <path id="Fill_41" data-name="Fill 41" d="M0,100.48S28.064,74.149,32.914,67.218,48.16,37.077,60.976,27.376L54.74,14.21s3.813-2.078,6.235,3.464c0,0,9.007-18.014,11.086-17.669s-4.156,13.859-4.156,13.859S76.569,1.391,78.993,1.738,72.757,15.76,72.757,15.76,82.456,4.51,83.843,5.9,76.22,15.76,76.22,15.76s9.7-5.569,10.74-3.734-9.7,6.688-9.7,6.688-1.04,7.969-7.621,11.433c0,0-13.033,35.213-24.813,46.646L6.985,116.121Z" transform="translate(134.644 29.006)" fill="#ffc6b2"/>
      <path id="Fill_43" data-name="Fill 43" d="M101.143,0S74.552,27.817,67.578,32.6,37.3,47.564,27.476,60.291L14.369,53.932s-2.113,3.791,3.407,6.267c0,0-18.1,8.839-17.771,10.923s13.9-4.028,13.9-4.028S1.347,75.64,1.671,78.067s14.079-6.106,14.079-6.106S4.41,81.555,5.783,82.953s9.935-7.527,9.935-7.527-5.66,9.647-3.832,10.7,6.776-9.638,6.776-9.638,7.977-.962,11.5-7.514c0,0,33.353-13.271,44.9-24.943l41.505-29.41Z" transform="translate(0 143.134)" fill="#ffc6b2"/>
      <path id="Fill_45" data-name="Fill 45" d="M13.449,8.97,0,22.136,3.411,36.978s13.25,31.811,15.253,39.571c3.114,12.068-1.923,30.467-1.923,30.467s22.463-1.865,42.9-2.558,27.124-7.278,27.124-7.278S69.046,38.159,56.811,21.66,40.125,0,40.125,0L22.11,3.938Z" transform="translate(97.663 123.077)" fill="#fff"/>
      <path id="Fill_47" data-name="Fill 47" d="M20.562,29.862l14.013-8.954S36.716,11.315,19.816,0L0,12.418Z" transform="translate(130.021 112.93)" fill="#fff"/>
      <path id="Fill_49" data-name="Fill 49" d="M23.287.28C15.6,1.358,1.566,20.828,0,20.792c0,0,9.88,16.124,17.707,16.647,0,0,34.443-41.208,5.58-37.159" transform="translate(77.21 143.892)" fill="#fff"/>
      <path id="Fill_51" data-name="Fill 51" d="M42.766,43.7S31.6,35.352,31.987,32.026c.1-.838,1.646-2.2,2.048-3.405C36.2,22.125,25.761,5.387,19.347,1.86,14.3-.915,16.513-1.16,5.894,5.15s-4.569,17.222.173,22.866c4.483,5.335,9.617,7.62,14.237,8.005l6.568,14.588Z" transform="translate(84.849 87.808)" fill="#ffc6b2"/>
      <path id="Fill_53" data-name="Fill 53" d="M.564,15.93C-1.548,10.749,2.452,4.223,9.5,1.35S23.969.344,26.085,5.522,21.1,18.488,17.146,20.1,2.675,21.108.564,15.93" transform="translate(106.902 127.155)" fill="#ffc6b2"/>
      <path id="Fill_55" data-name="Fill 55" d="M4.04,0S.419-.2.017,2.217s6.639,2.415,9.255.6Z" transform="translate(86.876 115.82)" fill="#ffc6b2"/>
      <path id="Fill_57" data-name="Fill 57" d="M14.824,40.883c-.688-4.362-5.336-7.6-5.1-11.855,2.228.018,3.659-2.742,2.645-5.1-.4-.927-1.075-1.72-1.507-2.634s-.545-2.109.116-2.626a2.176,2.176,0,0,1,1.143-.327c3.3-.339,8.962.651,12-.476,2.894-1.072,6-3.159,5.694-6.7-.263-3.088-2.99-5.591-5.494-7.482C22.884,2.595,18.784-.241,17.237.016c-2.361.392-2.934,3.543-3.1,6.18a4.1,4.1,0,0,0-5.524-.041C7.173,7.435,6.493,9.468,5.867,11.43s-1.29,4-2.708,5.306c-1.32,1.215-3.409,2.135-3.135,4.2.326,2.464,3.544,3.34,5.032,5.441-.367-.515-.677,2.774-.466,3.332.635,1.68,2.22,2.792,3.366,4.077,2.44,2.739,3.634,5.5,6.868,7.1" transform="translate(77.904 77.154)" fill="#ff7b5b"/>
      <path id="Fill_59" data-name="Fill 59" d="M8.252,0,0,4.268S9.912,11.463,8.252,0" transform="translate(104.709 108.064)" fill="#fff"/>
      <path id="Fill_61" data-name="Fill 61" d="M4.754.754c.451.856-.217,2.093-1.491,2.763S.591,4.038.14,3.183.357,1.091,1.631.419,4.3-.1,4.754.754" transform="translate(96.854 109.001)" fill="#ffb2a0"/>
      <path id="Fill_63" data-name="Fill 63" d="M4.754.754c.451.856-.217,2.093-1.491,2.763S.591,4.038.14,3.183.357,1.09,1.631.419,4.3-.1,4.754.754" transform="translate(108.903 100.77)" fill="#ffb2a0"/>
      <path id="Fill_65" data-name="Fill 65" d="M5.456,6.892c-.038-.048.116-.251.473-.508A8.806,8.806,0,0,0,7.3,5.363c.436-.459.593-1.417-.075-1.552-.694-.236-1.481.56-2.385,1.316l-.664.551A1.468,1.468,0,0,1,3.1,6.086,2.432,2.432,0,0,1,1.556,5,7.521,7.521,0,0,1,.275,2.521C-.167.984.031-.008.138,0c.149-.007.2.947.76,2.3A8.261,8.261,0,0,0,2.223,4.455c.3.365.68.706.95.717.113.005.2-.033.414-.211l.655-.551c.455-.368.849-.74,1.369-1.086a2.2,2.2,0,0,1,1.872-.337,1.418,1.418,0,0,1,.974,1.544,2.169,2.169,0,0,1-.683,1.3A5.441,5.441,0,0,1,6.1,6.7c-.392.149-.608.241-.649.188" transform="translate(101.744 100.869)" fill="#ff7b5b"/>
      <path id="Fill_67" data-name="Fill 67" d="M0,1.729S5.264,1.759,8.12,0A12.246,12.246,0,0,1,.869,3.736Z" transform="translate(105.153 122.101)" fill="#ffa192"/>
      <path id="Fill_69" data-name="Fill 69" d="M3.2.387c-.048.26-.784.341-1.562.684C.852,1.39.282,1.863.063,1.716-.162,1.6.21.657,1.276.209s2-.067,1.927.179" transform="translate(104.234 99.837)" fill="#22343d"/>
      <path id="Fill_71" data-name="Fill 71" d="M.059,2.839C-.14,2.692.172,1.844.929,1,1.7.129,2.676-.16,2.78.082S2.292.867,1.62,1.629.274,3,.059,2.839" transform="translate(97.062 104.152)" fill="#22343d"/>
      <path id="Fill_73" data-name="Fill 73" d="M.349,4.914C-.077,4.6-.41,3.245,1.223,1.422,2.87-.442,4.711-.114,4.932.4c.237.508-.376,1.232-1.822,2.871C1.642,4.909.811,5.26.349,4.914" transform="translate(92.772 100.768)" fill="#ff7b5b"/>
      <path id="Fill_75" data-name="Fill 75" d="M.071,3C-.164,2.554.1,1.269,2.219.373,4.372-.552,5.807.469,5.786,1c0,.527-.815.9-2.706,1.711S.326,3.476.071,3" transform="translate(101.716 95.506)" fill="#ff7b5b"/>
      <path id="Fill_77" data-name="Fill 77" d="M55.032.019c.139.138-2.147,2.71-6.892,5.512A41.766,41.766,0,0,1,27.6,11.167,41.768,41.768,0,0,1,6.978,5.835C2.194,3.1-.131.564.006.424.2.175,2.8,2.317,7.594,4.662A45.32,45.32,0,0,0,27.585,9.295,45.335,45.335,0,0,0,47.508,4.367c4.754-2.416,7.324-4.6,7.524-4.348" transform="translate(499.568 111.263)" fill="#775298"/>
      <path id="Fill_79" data-name="Fill 79" d="M47.909,8.8c-.129.285-2.661-.766-6.926-1.717a74.248,74.248,0,0,0-7.577-1.245c-2.883-.319-6.07-.572-9.436-.812s-6.59-.507-9.516-.869A61.5,61.5,0,0,1,6.729,2.723C2.38,1.588-.084.244,0,.055c.113-.286,2.7.6,7.011,1.374,2.149.41,4.742.728,7.629,1.015,2.894.264,6.091.481,9.462.718s6.6.549,9.526.969a53.778,53.778,0,0,1,7.689,1.675c4.307,1.315,6.686,2.819,6.59,3" transform="translate(454.951 98.593)" fill="#775298"/>
      <g id="Group_83" data-name="Group 83" transform="translate(433.311 34.259)">
        <path id="Clip_82-2" data-name="Clip 82" d="M0,0H169.886V83.235H0Z" transform="translate(1.157 0.947)" fill="none"/>
        <g id="Group_83-2" data-name="Group 83" clip-path="url(#clip-path)">
          <path id="Fill_81" data-name="Fill 81" d="M17.088,16.859c8.086-1.716,16.463-.238,24.616,1.12s16.618,2.584,24.59.4C80.685,14.424,91.611-.116,106.535,0c6.145.048,11.938,2.672,17.925,4.061,7.434,1.725,15.18,1.54,22.711,2.77s15.313,4.26,19.57,10.595c5.05,7.518,3.665,18.122-1.634,25.466s-13.786,11.818-22.48,14.353c-6.065,1.767-12.527,2.789-17.775,6.306-5.309,3.558-8.775,9.284-13.722,13.329C98.718,87.031,79.4,84.122,66.581,74.493c-3.221-2.419-6.207-5.226-9.826-7C42.035,60.292,20.864,69.83,8.186,56.72c-12.874-13.314-11.04-35.632,8.9-39.861" transform="translate(1.157 0.947)" fill="#775298"/>
        </g>
      </g>
      <path id="Fill_84" data-name="Fill 84" d="M0,6.436S13.487,35.344,15.065,29.992s1.053-18.212.208-20.047S8.911,0,8.911,0Z" transform="translate(447.516 303.481)" fill="#ffb2a0"/>
      <path id="Fill_86" data-name="Fill 86" d="M2.844,18.171c1.248,1.6.414-.119,1.827,2.187,5.873-.2,9.815-5.174,9.815-5.174s9.322.247,9.214-1.419-8.936-1.045-8.936-1.045,9.341-2.934,8.828-4.4-11.293,3.2-11.293,3.2,10.882-6.755,9.274-7.838S9.5,8.5,9.5,8.5,18.6,1.03,17.232.067,3.248,8.832,3.248,8.832C3.432,4.046,0,4.214,0,4.214L.142,15.9a20.766,20.766,0,0,1,2.7,2.273" transform="translate(542.196 57.981)" fill="#ffc6b2"/>
      <path id="Fill_88" data-name="Fill 88" d="M12.807,23.267c-1.995.368-.448-.326-3.037.465C5.517,19.676,6.082,13.3,6.082,13.3S-1.05,7.3.132,6.126,7.51,11.278,7.51,11.278s-5.035-8.4-3.68-9.151,6.32,9.9,6.32,9.9S6.494-.254,8.416,0,14.25,11.62,14.25,11.62,12.408-.008,14.064.176,18.7,16.014,18.7,16.014c3.039-3.7,5.493-1.3,5.493-1.3l-7.7,8.472a29.54,29.54,0,0,0-3.687.078" transform="translate(394.059 0.001)" fill="#ffc6b2"/>
      <path id="Fill_90" data-name="Fill 90" d="M13.924.03C11.344-.394,5.108,3.751,1.987,10.507.24,14.288-.962,18.13,1.043,24.279c.944,2.893,2.92,3.255,3.362,4.551.557,1.641-1.289,6.812-1.289,6.812l7.362,2.973c.478-3.552,1.021-7.127,4.641-8.669A37.625,37.625,0,0,0,19.2,28.27c3.449-1.977,5.291-6.3,6.708-9.844C26.967,15.782,20.391,1.09,13.924.03" transform="translate(441.326 72.046)" fill="#ffc6b2"/>
      <path id="Fill_92" data-name="Fill 92" d="M48.787,4.949,36.453,0S-.152,67.883,0,86.717s50.275,56.541,50.275,56.541l8.454-7.306s-15.475-26.984-23.748-36.5,13.806-94.5,13.806-94.5" transform="translate(397.698 167.53)" fill="#ffb2a0"/>
      <path id="Fill_94" data-name="Fill 94" d="M7.67,14.434S34.856,1.535,29.393.4,11.154.825,9.4,1.817,0,8.963,0,8.963Z" transform="translate(500.057 235.374)" fill="#ffc6b2"/>
      <path id="Fill_96" data-name="Fill 96" d="M31.909,0,13.2,6.808S-5.519,89.133,1.626,102.057s27.21,4.374,55.789-11.224L81.354,77.766l-7.99-5.318s-27.856,5.459-35.679,10.9c0,0,4.082-11.567,9.526-27.9s9.2-33-15.3-55.453" transform="translate(426.692 171.89)" fill="#ffc6b2"/>
      <path id="Fill_98" data-name="Fill 98" d="M0,9.425C0,3.956,1.76,0,7.23,0S20.261,1.917,20.261,7.388s-4.31,14.355-9.782,14.355S0,14.9,0,9.425" transform="translate(435.57 106.379)" fill="#ffc6b2"/>
      <path id="Fill_100" data-name="Fill 100" d="M37.42,83.725S20.412,65.318,17.01,47.286,7.826,0,7.826,0L1.361,1.861s-3.063,39.984,0,46.106,18.021,46.891,22.576,57.6Z" transform="translate(402.469 21.871)" fill="#ffc6b2"/>
      <path id="Fill_102" data-name="Fill 102" d="M0,46.51S1.308,40.784,22.816,33,84.9,0,84.9,0l4.048,4.632S66.9,30.1,54.074,34.565,14,56.645,11.2,58.054C6.963,60.186,7.015,62.869,0,46.51" transform="translate(458.162 73.431)" fill="#ffc6b2"/>
      <path id="Fill_104" data-name="Fill 104" d="M17.281,0S0,5.6,0,31.9c0,0,.011,36.013,4.084,42.565a36.4,36.4,0,0,0,14.876,0C27.615,72.68,35.992,66.3,35.992,66.3l13.593-40.81L47.96,6.365,29.477,2.8s5.3,24.777-13.881,14.125C11.868,14.851,21.081.794,21.081.794Z" transform="translate(422.609 105.595)" fill="#22343d"/>
      <path id="Fill_106" data-name="Fill 106" d="M8.515,32.359,0,14.618S1.221,3.856,16.853,0c0,0,1.581,5.425,3.314,7.5s6.776,4.276,6.776,4.276Z" transform="translate(416.753 94.622)" fill="#22343d"/>
      <path id="Fill_108" data-name="Fill 108" d="M4.694,26.907l27.076-5.55S36.478,11.6,25.316,0c0,0-21.12,1.275-23.854,1.5C-1.229,1.726.619,3.8.619,3.8Z" transform="translate(452.765 107.205)" fill="#22343d"/>
      <path id="Fill_110" data-name="Fill 110" d="M29.841,5.729S4.231,53.079,0,61.539c0,0,75.556,34.708,106.227-7.069,0,0-17.447-36.927-44.418-50.986L50.173,0,30.3,5.5" transform="translate(396.808 165.555)" fill="#22343d"/>
      <path id="Fill_112" data-name="Fill 112" d="M1.795,1.61s2.917-2.917,4.712-.9S0,5.649,0,5.649Z" transform="translate(464.449 88.415)" fill="#ffc6b2"/>
      <path id="Fill_114" data-name="Fill 114" d="M81.386,3.474a9.822,9.822,0,0,1-3.25,1.1A44.77,44.77,0,0,1,68.85,5.64a92,92,0,0,1-13.8-.97C49.9,3.987,44.308,2.984,38.422,2.342a63.428,63.428,0,0,0-16.528.065A37.163,37.163,0,0,0,9.246,6.756a28.249,28.249,0,0,0-7.03,5.69C.794,14.068.154,15.1.009,15.016a8.581,8.581,0,0,1,1.638-3.025A25.128,25.128,0,0,1,8.559,5.625,36.313,36.313,0,0,1,21.608.706,61.005,61.005,0,0,1,38.621.481c5.983.653,11.584,1.713,16.673,2.481A108.261,108.261,0,0,0,68.854,4.315c7.763.217,12.461-1.161,12.532-.841" transform="translate(438.22 46.762)" fill="#775298"/>
      <path id="Fill_116" data-name="Fill 116" d="M3.661,7.271c-.008.114-.839.195-2.108-.226A2.815,2.815,0,0,1,.524,6.474,1.674,1.674,0,0,1,.1,5.854,1.4,1.4,0,0,1,.109,4.8c.041-.061.038-.207.119-.21l.247-.008A1.8,1.8,0,0,1,1,4.641a4.135,4.135,0,0,0,.681.071,5.421,5.421,0,0,0,1.285-.129A5.208,5.208,0,0,0,6.456,1.86C7.013.793,7.062-.009,7.211,0c.1-.014.312.839-.149,2.127a5.378,5.378,0,0,1-1.3,1.989A5.436,5.436,0,0,1,3.173,5.5a5.686,5.686,0,0,1-1.527.132,5.887,5.887,0,0,1-.657-.076c-.091-.015-.08-.035-.1-.025a.069.069,0,0,0-.015.055.911.911,0,0,0,.2.345,2.4,2.4,0,0,0,.733.507c1.1.538,1.875.7,1.855.838" transform="translate(447.726 81.098)" fill="#ff7b5b"/>
      <path id="Fill_118" data-name="Fill 118" d="M0,0,9.974,3.93S1.209,9.975,0,0" transform="translate(445.313 88.684)" fill="#fff"/>
      <path id="Fill_120" data-name="Fill 120" d="M3.737,2.5c-.354.673-1.453.79-2.454.263S-.243,1.266.11.594,1.564-.2,2.565.329,4.092,1.828,3.737,2.5" transform="translate(455.81 88.074)" fill="#ffb2a0"/>
      <path id="Fill_122" data-name="Fill 122" d="M3.839,2.316c-.3.7-1.389.9-2.427.45S-.224,1.387.079.689,1.467-.21,2.505.24,4.142,1.619,3.839,2.316" transform="translate(444.576 82.356)" fill="#ffb2a0"/>
      <path id="Fill_124" data-name="Fill 124" d="M0,0S3.5,2.928,7.144,1.985c0,0-1.258,1.886-6.1,1.194A3.452,3.452,0,0,0,0,0" transform="translate(444.72 99.623)" fill="#ffa192"/>
      <path id="Fill_126" data-name="Fill 126" d="M1.581.79A.79.79,0,1,1,.79,0a.791.791,0,0,1,.79.79" transform="translate(457.009 83.521)" fill="#22343d"/>
      <path id="Fill_128" data-name="Fill 128" d="M1.579.79A.79.79,0,1,1,.789,0a.791.791,0,0,1,.79.79" transform="translate(450.544 81.191)" fill="#22343d"/>
      <path id="Fill_130" data-name="Fill 130" d="M2.836,2.137c-.244.1-.715-.467-1.429-.929C.708.725,0,.508,0,.244-.023-.009.966-.215,1.927.429s1.153,1.631.909,1.707" transform="translate(458.293 80.069)" fill="#775298"/>
      <path id="Fill_132" data-name="Fill 132" d="M0,.722C-.016.476.833.165,1.969.2c1.157.025,2.011.586,1.893.82s-.914.135-1.929.116S.017.991,0,.722" transform="translate(449.732 77.649)" fill="#775298"/>
      <path id="Fill_134" data-name="Fill 134" d="M0,14.993S4.149,29.72,8.433,28.515,9.5,6.756,9.5,6.756L5.222,0S9.237,34.405,0,14.993" transform="translate(453.293 306.67)" fill="#22343d"/>
      <path id="Fill_136" data-name="Fill 136" d="M0,5.006s3.017-3.292,6.674-3.84S23.407-.938,25.327.8s-10.6,7.563-10.6,7.563,4.362-2.78,2.551-3.813C14.08,2.719,0,5.006,0,5.006" transform="translate(505.613 235.009)" fill="#22343d"/>
      <path id="Fill_138" data-name="Fill 138" d="M0,1.116,4.093,9.427l2.233-1.24L.868,0Z" transform="translate(500.425 242.842)" fill="#22343d"/>
      <path id="Fill_140" data-name="Fill 140" d="M10.048,0,0,9.056l2.977,2.481,8.435-9.18Z" transform="translate(444.605 300.149)" fill="#22343d"/>
      <path id="Fill_142" data-name="Fill 142" d="M33.92,88.684C31.063,81.593,29.964,73.7,25.7,67.352,19.565,58.221,7.78,53.69,2.8,43.879A30.293,30.293,0,0,1,0,30.273C-.04,21.029,2.727,11.2,9.867,5.327c8.2-6.751,20.514-6.656,30.123-2.122S56.937,15.972,63.178,24.57,74.884,42.394,82.152,50.142c5.389,5.745,11.781,10.7,15.84,17.449,11.128,18.5-.322,41.915-19.968,48.593-17.263,5.866-38.133-12.674-44.105-27.5" transform="translate(210.667 121.31)" fill="#22343d"/>
      <path id="Fill_144" data-name="Fill 144" d="M20.985,3.751c1.709,1.4-.155.432,2.33,2.051-.555,6.21-6.3,10.122-6.3,10.122s-.243,9.886-2.088,9.683-.665-9.519-.665-9.519S10.484,25.825,8.884,25.2s4.19-11.791,4.19-11.791S4.961,24.581,3.846,22.82,9.872,10.285,9.872,10.285,1.057,19.527.061,18.03,10.58,3.686,10.58,3.686C5.251,3.627,5.629,0,5.629,0l12.98.77a22.171,22.171,0,0,0,2.376,2.981" transform="translate(199.009 336.742)" fill="#ffc6b2"/>
      <path id="Fill_146" data-name="Fill 146" d="M13.618,24.673c2.221.39.5-.346,3.379.492,4.734-4.3,4.106-11.058,4.106-11.058s7.939-6.366,6.622-7.61-8.211,5.461-8.211,5.461,5.6-8.9,4.1-9.7-7.032,10.494-7.032,10.494S20.645-.268,18.506,0s-6.493,12.318-6.493,12.318S14.062-.008,12.219.187,7.389,16.534,7.389,16.534C3.043,13,0,15.262,0,15.262L9.514,24.59a34.68,34.68,0,0,1,4.1.083" transform="translate(330.38 129.372)" fill="#ffc6b2"/>
      <path id="Fill_148" data-name="Fill 148" d="M12.619.034C16.634-.592,28.88,7.344,25.764,23.46c-.26,1.353-2.028,4.332-2.468,5.564-.556,1.56,3.776,7.271,3.776,7.271L15.889,39.867c-.477-3.378.326-8.315-3.288-9.782a38.726,38.726,0,0,1-4.074-1.593c-3.443-1.88-5.281-5.994-6.7-9.361A20.277,20.277,0,0,1,0,11.177C.074,4.3,6.164,1.043,12.619.034" transform="translate(277.038 208.002)" fill="#ffc6b2"/>
      <path id="Fill_150" data-name="Fill 150" d="M22.053,8.015c0-5.8-1.84-8.015-7.928-8.015S0,2.214,0,8.015,4.3,21.077,10.39,21.077s11.663-7.26,11.663-13.062" transform="translate(289.998 244.158)" fill="#ffc6b2"/>
      <path id="Fill_152" data-name="Fill 152" d="M0,88.783S18.931,69.264,22.717,50.144,32.94,0,32.94,0l7.195,1.973s3.409,42.4,0,48.893S17.416,102.454,17.794,114Z" transform="translate(307.243 152.564)" fill="#ffc6b2"/>
      <path id="Fill_154" data-name="Fill 154" d="M56.418,0S49.981,1.082,40.136,23.45,0,87.455,0,87.455l4.923,4.533s29.533-22,35.213-35.351S53.008,26.7,56.418,27.416,74.213,8.3,56.418,0" transform="translate(217.08 250.798)" fill="#ffc6b2"/>
      <path id="Fill_156" data-name="Fill 156" d="M19.8,39.831,28.614,15.5S27.254,4.091,9.856,0L0,14.2Z" transform="translate(304.381 229.712)" fill="#ff7b5b"/>
      <path id="Fill_158" data-name="Fill 158" d="M18.829,0S8.429.876,0,19.39c0,0,9.27,12.8,16.052,13.23,0,0,25.188-21.53,2.777-32.62" transform="translate(257.608 248.931)" fill="#ff7b5b"/>
      <path id="Fill_160" data-name="Fill 160" d="M17.9,6.824S2.885,37.479,1.13,31.8-.043,12.491.9,10.545,7.979,0,7.979,0Z" transform="translate(287.113 461.664)" fill="#ffc6b2"/>
      <path id="Fill_162" data-name="Fill 162" d="M11.066,5.249,24.794,0S65.536,71.985,65.367,91.958,9.41,151.915,9.41,151.915L0,144.166S26.443,105.287,35.65,95.2c4.6-5.046-28.357-29.772-33.35-53.564S11.066,5.249,11.066,5.249" transform="translate(295.091 317.498)" fill="#654287"/>
      <path id="Fill_164" data-name="Fill 164" d="M26.948,10.394S-1.132,31.093.035,25.284s8.241-17.68,10.014-19S21.412,0,21.412,0Z" transform="translate(196.667 442.035)" fill="#ffc6b2"/>
      <path id="Fill_166" data-name="Fill 166" d="M50.727,23.54,91.344,0s1.612,81.769-8.139,99.449S4.64,128.33,4.64,128.33L0,117.337s42.456-25.3,55.491-30.246S50.727,23.54,50.727,23.54" transform="translate(218.079 324.698)" fill="#775298"/>
      <path id="Fill_168" data-name="Fill 168" d="M24.916,0S-4.991,10.589.727,39.642s15.245,34.5,15.245,34.5L33.123,46,50.342,9.142,33.123,6.958Z" transform="translate(268.08 308.596)" fill="#775298"/>
      <path id="Fill_170" data-name="Fill 170" d="M34.2,0A47.38,47.38,0,0,1,56.223,40.224s-2.8,31.789-7.331,38.734a42.449,42.449,0,0,1-16.557,0C22.7,77.072,13.378,70.3,13.378,70.3L5.854,31.382,0,8.657,3.174,7.61l16.56-1.819S17.354,30.529,35.845,18.244C39.739,15.657,31,2.758,31,2.758Z" transform="translate(273.039 241.347)" fill="#ff7b5b"/>
      <path id="Fill_172" data-name="Fill 172" d="M0,46.166,46.165,73.1,72.134,24.045,28.853,0Z" transform="translate(320.72 89.813)" fill="#fff"/>
      <path id="Fill_174" data-name="Fill 174" d="M24.443,68.054,57.46,47.615,30.182,0,0,19.572Z" transform="translate(360.501 302.733)" fill="#fff"/>
      <path id="Fill_176" data-name="Fill 176" d="M.009,0C.1-.073,1.116.852,2.728,2.739A56.079,56.079,0,0,1,8.72,11.381a62.861,62.861,0,0,1,5.948,14.449c1.613,5.645,2.7,11.991,5.175,18.1a40.242,40.242,0,0,0,4.705,8.316,45.157,45.157,0,0,0,6.091,6.526,43.364,43.364,0,0,0,13.032,7.672,41.912,41.912,0,0,0,10,2.386c2.425.268,3.8.308,3.8.467a12.181,12.181,0,0,1-3.851.26A36.038,36.038,0,0,1,43.235,67.7a42.36,42.36,0,0,1-13.709-7.6,45.009,45.009,0,0,1-6.444-6.741,40.866,40.866,0,0,1-4.972-8.709c-2.584-6.389-3.6-12.791-5.107-18.362a67.123,67.123,0,0,0-5.446-14.27,74.284,74.284,0,0,0-5.4-8.829C.734,1.183-.1.1.009,0" transform="translate(222.367 167.886)" fill="#22343d"/>
      <path id="Fill_178" data-name="Fill 178" d="M.1,0C.435-.051.764,4.493,3.307,11.215A50.538,50.538,0,0,0,9.178,22.277a53.765,53.765,0,0,0,4.682,5.737c1.754,1.906,3.664,3.843,5.47,6.015,3.62,4.384,6.111,9.121,8.456,13.3a54.235,54.235,0,0,1,5.126,11.833,21.693,21.693,0,0,1,.729,8.711,7.224,7.224,0,0,1-.921,3.067c-.162-.042.1-1.142.195-3.133a24.185,24.185,0,0,0-1.273-8.271,59.389,59.389,0,0,0-5.361-11.364c-2.423-4.132-4.935-8.774-8.394-12.952-1.736-2.09-3.619-4.02-5.384-5.974a52.131,52.131,0,0,1-4.749-6,47.193,47.193,0,0,1-5.7-11.595,41.925,41.925,0,0,1-1.9-8.474A8.823,8.823,0,0,1,.1,0" transform="translate(278.999 136.383)" fill="#22343d"/>
      <path id="Fill_180" data-name="Fill 180" d="M5.525,6.845c-.018-.131.734-.251,1.444-1.085A1.274,1.274,0,0,0,7.3,5.124a1.013,1.013,0,0,0-.338-.657.959.959,0,0,0-.785-.259c-.332.025-.737.189-1.266.268a3.355,3.355,0,0,1-2.656-1.03A9.45,9.45,0,0,1,.827,1.817C.135.8-.081.059.026,0c.123-.065.54.545,1.32,1.4A13.681,13.681,0,0,0,2.808,2.789,2.7,2.7,0,0,0,4.78,3.55c.371-.048.8-.221,1.329-.256a1.826,1.826,0,0,1,1.458.561,1.727,1.727,0,0,1,.5,1.344,1.8,1.8,0,0,1-.624,1.022c-1.018.891-1.951.745-1.919.624" transform="translate(287.722 218.708)" fill="#ff7b5b"/>
      <path id="Fill_182" data-name="Fill 182" d="M8.867,0,0,3.224S7.523,9.806,8.867,0" transform="translate(289.837 226.321)" fill="#fff"/>
      <path id="Fill_184" data-name="Fill 184" d="M3.737.593c.354.673-.17,1.646-1.172,2.172S.465,3.175.111,2.5.281.857,1.282.33s2.1-.41,2.454.263" transform="translate(285.216 225.179)" fill="#ffb2a0"/>
      <path id="Fill_186" data-name="Fill 186" d="M3.86.711c.29.7-.323,1.622-1.368,2.053s-2.13.214-2.42-.489S.395.654,1.441.222,3.57.008,3.86.711" transform="translate(295.603 219.671)" fill="#ffb2a0"/>
      <path id="Fill_188" data-name="Fill 188" d="M0,.341A16.78,16.78,0,0,0,6.748,0,9.427,9.427,0,0,1,1.838,2.232,5.282,5.282,0,0,0,0,.341" transform="translate(290.099 237.981)" fill="#ffa192"/>
      <path id="Fill_190" data-name="Fill 190" d="M1.3.187A.79.79,0,1,1,.187.279.79.79,0,0,1,1.3.187" transform="translate(291.829 218.204)" fill="#22343d"/>
      <path id="Fill_192" data-name="Fill 192" d="M1.3.187A.79.79,0,1,1,.187.279.79.79,0,0,1,1.3.187" transform="translate(285.871 221.632)" fill="#22343d"/>
      <path id="Fill_194" data-name="Fill 194" d="M3.324.515c-.079.253-.819.244-1.632.491-.82.221-1.443.621-1.645.448C-.161,1.309.321.421,1.435.1s1.989.176,1.89.41" transform="translate(289.841 214.579)" fill="#22343d"/>
      <path id="Fill_196" data-name="Fill 196" d="M.059,2.838C-.14,2.691.172,1.844.929,1,1.7.129,2.676-.159,2.778.082s-.488.785-1.16,1.547S.274,3,.059,2.838" transform="translate(282.814 218.472)" fill="#22343d"/>
      <path id="Fill_198" data-name="Fill 198" d="M4.375,1.132S1.531-1.256.166.9,6.308,4.2,6.308,4.2Z" transform="translate(275.153 226.761)" fill="#ffc6b2"/>
      <path id="Fill_200" data-name="Fill 200" d="M14.821,0s-4.077,1.773-5.14,2.837S-1.132,20.739.109,22.866s11.018-5.094,11.018-5.094S2.946,19.322,14.821,0" transform="translate(196.329 445.703)" fill="#775298"/>
      <path id="Fill_202" data-name="Fill 202" d="M3.872,0S.977,3.13.53,4.568-.717,25.445,1.372,26.75s7.794-9.421,7.794-9.421S2.344,22.673,3.872.045" transform="translate(286.833 467.97)" fill="#775298"/>
    </g>
  </g>
</svg>
