<?xml version="1.0" encoding="utf-8"?><svg version="1.1" id="Layer_1" xmlns="http://www.w3.org/2000/svg" xmlns:xlink="http://www.w3.org/1999/xlink" x="0px" y="0px" viewBox="0 0 122.88 114.26" style="enable-background:new 0 0 122.88 114.26" xml:space="preserve"><style type="text/css">.st0{fill-rule:evenodd;clip-rule:evenodd;}</style><g><path class="st0" d="M0,104.77h14.74V19.01c0-0.81,0.67-1.48,1.49-1.48h2.98l1.41-5.75l-5.46-4.62l7.13-0.53L25,0l2.71,6.62 l7.13,0.53l-5.46,4.62l1.41,5.76c4.28,0,8.51,0.01,12.7,0.01l1.41-5.77l-5.46-4.62l7.13-0.53L49.3,0L52,6.62l7.13,0.53l-5.46,4.62 l1.42,5.78l12.69,0.02l1.42-5.8l-5.46-4.62l7.13-0.53L73.59,0l2.71,6.62l7.13,0.53l-5.46,4.62l1.42,5.81 c4.19,0,8.41,0.01,12.68,0.01l1.42-5.82l-5.46-4.62l7.13-0.53L97.88,0l2.71,6.62l7.13,0.53l-5.46,4.62l1.43,5.83l2.96,0 c0.82,0,1.48,0.67,1.48,1.48v85.68h14.74v9.49H0V104.77L0,104.77z M20.85,17.53c2.8,0,5.57,0,8.31,0L25,14.96L20.85,17.53 L20.85,17.53z M45.11,17.55l8.38,0.01l-4.2-2.6L45.11,17.55L45.11,17.55z M69.36,17.58l8.48,0.01l-4.25-2.63L69.36,17.58 L69.36,17.58z M93.61,17.6c2.83,0,5.67,0,8.54,0l-4.27-2.64L93.61,17.6L93.61,17.6z M27.99,84.32h8.42c0.27,0,0.5,0.22,0.5,0.5 v8.49c0,0.27-0.22,0.5-0.5,0.5h-8.42c-0.27,0-0.5-0.22-0.5-0.5v-8.49C27.5,84.54,27.72,84.32,27.99,84.32L27.99,84.32z M85.87,84.32h8.42c0.27,0,0.5,0.22,0.5,0.5v8.49c0,0.27-0.22,0.5-0.5,0.5h-8.42c-0.27,0-0.5-0.22-0.5-0.5v-8.49 C85.37,84.54,85.59,84.32,85.87,84.32L85.87,84.32z M71.15,53.74h8.42c0.27,0,0.5,0.22,0.5,0.5v8.49c0,0.27-0.22,0.5-0.5,0.5h-8.42 c-0.27,0-0.5-0.22-0.5-0.5v-8.49C70.65,53.97,70.87,53.74,71.15,53.74L71.15,53.74z M85.87,53.74h8.42c0.27,0,0.5,0.22,0.5,0.5 v8.49c0,0.27-0.22,0.5-0.5,0.5h-8.42c-0.27,0-0.5-0.22-0.5-0.5v-8.49C85.37,53.97,85.59,53.74,85.87,53.74L85.87,53.74z M85.87,69.03h8.42c0.27,0,0.5,0.22,0.5,0.5v8.49c0,0.27-0.22,0.5-0.5,0.5h-8.42c-0.27,0-0.5-0.22-0.5-0.5v-8.49 C85.37,69.26,85.59,69.03,85.87,69.03L85.87,69.03z M71.15,69.03h8.42c0.27,0,0.5,0.22,0.5,0.5v8.49c0,0.27-0.22,0.5-0.5,0.5h-8.42 c-0.27,0-0.5-0.22-0.5-0.5v-8.49C70.65,69.26,70.87,69.03,71.15,69.03L71.15,69.03z M71.15,84.32h8.42c0.27,0,0.5,0.22,0.5,0.5 v8.49c0,0.27-0.22,0.5-0.5,0.5h-8.42c-0.27,0-0.5-0.22-0.5-0.5v-8.49C70.65,84.54,70.87,84.32,71.15,84.32L71.15,84.32z M42.71,53.74h8.42c0.27,0,0.5,0.22,0.5,0.5v8.49c0,0.27-0.22,0.5-0.5,0.5h-8.42c-0.27,0-0.5-0.22-0.5-0.5v-8.49 C42.21,53.97,42.44,53.74,42.71,53.74L42.71,53.74z M27.99,53.74h8.42c0.27,0,0.5,0.22,0.5,0.5v8.49c0,0.27-0.22,0.5-0.5,0.5h-8.42 c-0.27,0-0.5-0.22-0.5-0.5v-8.49C27.5,53.97,27.72,53.74,27.99,53.74L27.99,53.74z M27.99,69.03h8.42c0.27,0,0.5,0.22,0.5,0.5v8.49 c0,0.27-0.22,0.5-0.5,0.5h-8.42c-0.27,0-0.5-0.22-0.5-0.5v-8.49C27.5,69.26,27.72,69.03,27.99,69.03L27.99,69.03z M42.71,69.03 h8.42c0.27,0,0.5,0.22,0.5,0.5v8.49c0,0.27-0.22,0.5-0.5,0.5h-8.42c-0.27,0-0.5-0.22-0.5-0.5v-8.49 C42.21,69.26,42.44,69.03,42.71,69.03L42.71,69.03z M42.71,84.32h8.42c0.27,0,0.5,0.22,0.5,0.5v8.49c0,0.27-0.22,0.5-0.5,0.5h-8.42 c-0.27,0-0.5-0.22-0.5-0.5v-8.49C42.21,84.54,42.44,84.32,42.71,84.32L42.71,84.32z M23.95,26.36h4.71v5.49h5.16v-5.49h4.74v15.72 h-4.74v-6.37h-5.16v6.37h-4.71V26.36L23.95,26.36z M41.09,34.23c0-2.57,0.69-4.56,2.08-5.99c1.39-1.43,3.32-2.14,5.81-2.14 c2.54,0,4.5,0.7,5.88,2.11c1.38,1.41,2.06,3.37,2.06,5.9c0,1.84-0.3,3.34-0.9,4.52c-0.6,1.17-1.47,2.09-2.61,2.75 c-1.14,0.66-2.55,0.98-4.25,0.98c-1.72,0-3.15-0.28-4.28-0.85c-1.13-0.57-2.04-1.46-2.74-2.68C41.45,37.6,41.09,36.07,41.09,34.23 L41.09,34.23z M45.81,34.25c0,1.58,0.29,2.73,0.86,3.42c0.58,0.69,1.36,1.04,2.35,1.04c1.01,0,1.8-0.34,2.36-1.02 c0.56-0.68,0.84-1.9,0.84-3.66c0-1.48-0.29-2.56-0.87-3.24c-0.58-0.68-1.37-1.03-2.36-1.03c-0.95,0-1.72,0.35-2.3,1.04 C46.1,31.5,45.81,32.65,45.81,34.25L45.81,34.25z M57.84,26.36H72.2v3.89h-4.82v11.84h-4.71V30.25h-4.82V26.36L57.84,26.36z M74.31,26.36h12.63v3.36h-7.89v2.5h7.32v3.21h-7.32v3.1h8.13v3.56H74.31V26.36L74.31,26.36z M89.72,26.36h4.71v11.86h7.38v3.87 H89.72V26.36L89.72,26.36z M65.21,47.2h35.53c0.59,0,1.07,0.57,1.07,1.27V99.7c0,0.7-0.48,1.27-1.07,1.27H65.21 c-0.59,0-1.07-0.57-1.07-1.27V48.48C64.14,47.77,64.62,47.2,65.21,47.2L65.21,47.2z M21.98,47.13h35.53c0.59,0,1.07,0.57,1.07,1.27 v51.3c0,0.7-0.48,1.27-1.07,1.27H21.98c-0.59,0-1.07-0.57-1.07-1.27V48.4C20.91,47.7,21.39,47.13,21.98,47.13L21.98,47.13z"/></g></svg>